<?xml version="1.0" standalone="no"?>
<!DOCTYPE svg PUBLIC "-//W3C//DTD SVG 20010904//EN"
 "http://www.w3.org/TR/2001/REC-SVG-20010904/DTD/svg10.dtd">
<svg version="1.0" xmlns="http://www.w3.org/2000/svg"
 width="1024.000000pt" height="1024.000000pt" viewBox="0 0 1024.000000 1024.000000"
 preserveAspectRatio="xMidYMid meet">

<g transform="translate(0.000000,1024.000000) scale(0.100000,-0.100000)"
fill="#000000" stroke="none">
<path d="M4820 9530 c-902 -71 -1753 -415 -2454 -993 -721 -595 -1249 -1448
-1454 -2352 -193 -847 -149 -1741 124 -2535 294 -858 831 -1590 1549 -2112
799 -582 1828 -884 2815 -829 480 27 952 132 1400 310 146 59 462 215 601 299
449 268 867 640 1206 1072 69 88 267 384 335 500 305 520 492 1113 563 1785
19 178 22 604 5 805 -42 507 -164 1005 -352 1434 -51 117 -192 389 -269 518
-271 456 -661 893 -1084 1213 -640 485 -1349 772 -2145 870 -150 19 -672 28
-840 15z m250 -178 c45 -47 119 -176 107 -188 -16 -16 -55 17 -116 99 -37 51
-75 98 -85 106 -13 11 -14 16 -4 22 27 18 53 7 98 -39z m129 9 c40 -40 119
-187 107 -199 -13 -12 -62 27 -93 74 -28 44 -62 93 -102 146 -12 16 -11 18 18
18 23 0 41 -10 70 -39z m125 9 c30 -27 134 -206 124 -215 -1 -2 -15 -1 -29 2
-18 3 -39 25 -70 71 -24 37 -61 91 -82 120 l-38 52 30 0 c19 0 43 -11 65 -30z
m-406 -7 c35 -26 132 -167 132 -190 0 -38 -66 4 -129 82 -30 37 -67 80 -82 95
-16 15 -25 30 -22 34 15 15 69 4 101 -21z m551 -9 c17 -19 52 -75 76 -125 38
-75 42 -89 27 -89 -32 0 -61 30 -113 118 -28 48 -60 97 -72 110 l-20 22 35 0
c29 0 42 -7 67 -36z m-721 12 c15 -8 41 -29 58 -48 31 -33 114 -152 114 -163
0 -3 -12 -3 -27 0 -17 3 -65 42 -130 107 -94 94 -101 104 -81 110 35 9 37 9
66 -6z m859 -18 c18 -18 55 -77 82 -132 l51 -98 -31 6 c-38 7 -57 28 -117 129
-25 43 -54 87 -64 97 -25 26 -23 30 15 30 24 0 42 -9 64 -32z m99 12 c42 -15
97 -94 153 -217 18 -41 18 -43 1 -43 -29 0 -68 38 -100 98 -16 31 -48 81 -70
110 -22 29 -40 55 -40 57 0 8 25 6 56 -5z m-1074 -41 c53 -39 156 -164 145
-175 -18 -18 -74 15 -154 90 -48 45 -97 88 -108 94 -19 10 -19 11 5 21 41 16
55 13 112 -30z m1230 13 c14 -9 35 -29 46 -42 27 -35 114 -211 108 -218 -14
-14 -59 22 -92 75 -21 32 -57 88 -81 125 -23 37 -43 70 -43 73 0 11 37 4 62
-13z m-1396 -27 c23 -14 72 -57 109 -97 l66 -73 -36 -3 c-39 -4 -44 0 -153 94
-39 34 -78 67 -89 73 -16 9 -16 12 -3 21 25 16 61 11 106 -15z m1548 -4 c41
-26 69 -64 116 -163 45 -91 49 -110 23 -101 -34 11 -64 48 -125 148 -34 55
-68 108 -76 118 -14 15 -13 17 8 17 12 0 37 -9 54 -19z m-1678 -39 c58 -38
162 -147 151 -159 -17 -17 -84 14 -170 80 -52 39 -103 77 -113 84 -17 10 -17
13 -4 22 30 21 76 11 136 -27z m1817 14 c18 -7 45 -30 61 -51 29 -37 106 -199
106 -222 0 -45 -80 35 -129 127 -19 36 -49 86 -67 113 -37 51 -31 58 29 33z
m-2007 -31 c38 -16 142 -95 183 -139 l24 -26 -45 0 c-40 0 -56 8 -121 54 -41
29 -93 65 -116 78 -31 19 -38 27 -29 36 16 16 61 15 104 -3z m2197 -34 c33
-30 47 -55 94 -161 50 -113 50 -111 14 -99 -37 13 -53 34 -116 154 -26 50 -53
97 -60 105 -6 8 -15 21 -20 29 -13 23 57 2 88 -28z m-2338 -15 c28 -12 83 -51
123 -84 70 -59 72 -62 48 -68 -41 -10 -72 3 -179 72 -55 35 -104 64 -109 64
-17 0 -7 21 15 30 34 14 48 12 102 -14z m2481 -21 c19 -14 45 -45 58 -68 34
-58 100 -217 93 -224 -11 -10 -56 26 -86 68 -16 22 -50 80 -75 129 -26 49 -51
92 -56 95 -17 11 -11 25 12 25 11 0 36 -11 54 -25z m-2593 -46 c60 -37 147
-108 147 -121 0 -4 -17 -8 -37 -8 -29 0 -68 17 -162 72 l-124 72 29 13 c41 18
86 9 147 -28z m2756 -12 c28 -21 51 -51 73 -92 24 -45 80 -206 74 -212 -2 -3
-22 12 -44 32 -26 23 -59 73 -93 138 -28 56 -62 116 -75 134 -13 17 -24 34
-24 37 0 8 69 -21 89 -37z m-2895 -47 c31 -19 70 -46 88 -62 18 -15 36 -28 41
-28 4 0 7 -4 7 -10 0 -5 -15 -12 -34 -15 -29 -6 -53 3 -165 61 -124 64 -130
69 -109 81 38 22 110 10 172 -27z m3083 -37 c29 -29 47 -58 58 -96 17 -57 37
-169 31 -174 -1 -2 -18 12 -37 30 -22 22 -46 64 -67 120 -18 47 -46 105 -63
129 -16 24 -29 46 -29 50 0 17 69 -21 107 -59z m-3279 -7 c31 -13 82 -40 112
-60 30 -20 60 -36 67 -36 22 0 14 -17 -9 -24 -49 -13 -85 -4 -192 46 -61 28
-115 55 -120 60 -9 7 47 37 72 38 7 0 38 -11 70 -24z m3385 -21 c64 -27 93
-90 104 -223 6 -84 6 -84 -15 -71 -24 15 -41 54 -71 164 -12 44 -31 92 -41
107 -31 43 -29 45 23 23z m-3524 -50 c35 -14 79 -36 99 -49 21 -13 47 -26 60
-30 12 -4 22 -11 22 -16 0 -12 -75 -23 -102 -15 -51 14 -218 88 -218 96 0 12
42 39 61 39 8 0 44 -11 78 -25z m2161 -40 c671 -70 1327 -326 1879 -734 248
-182 560 -495 768 -768 413 -541 637 -1099 740 -1843 25 -180 25 -752 0 -928
-46 -320 -134 -657 -234 -891 -139 -327 -380 -725 -611 -1011 -115 -142 -420
-443 -567 -561 -588 -469 -1190 -720 -1995 -831 -150 -20 -663 -17 -820 5
-671 96 -1204 297 -1730 651 -573 386 -997 872 -1325 1516 -343 676 -443 1476
-289 2320 104 572 330 1097 668 1554 84 113 302 361 412 466 294 283 554 468
904 644 474 237 970 380 1440 415 80 6 165 13 190 15 82 7 433 -5 570 -19z
m1521 9 c47 -24 71 -89 77 -209 l4 -100 -25 24 c-19 17 -31 44 -42 100 -14 65
-36 144 -53 189 -6 16 3 15 39 -4z m-3683 -143 c-29 -12 -41 -12 -98 3 -100
26 -155 56 -155 86 0 15 8 29 22 36 19 9 40 2 143 -50 l120 -61 -32 -14z
m-295 50 c5 -22 16 -32 48 -45 24 -10 57 -27 73 -39 17 -12 40 -20 51 -19 16
2 17 1 5 -7 -8 -6 -24 -8 -36 -5 -15 4 -28 -3 -45 -23 -34 -40 -79 -68 -79
-49 0 7 11 17 25 20 35 9 31 24 -10 42 -55 23 -62 19 -68 -38 -7 -52 -31 -98
-56 -106 -11 -4 -12 14 -6 89 4 52 10 111 15 132 15 72 72 105 83 48z m4135 0
c37 -37 52 -96 52 -201 0 -77 -1 -80 -20 -70 -20 11 -27 30 -60 170 -11 47
-22 95 -26 108 -9 32 18 29 54 -7z m-4289 -172 c-18 -115 -25 -138 -48 -162
l-27 -27 4 107 c5 141 14 176 54 202 18 11 34 18 36 16 2 -1 -7 -63 -19 -136z
m4423 94 c37 -41 48 -85 48 -197 l-1 -101 -28 31 c-22 25 -30 46 -40 117 -6
47 -18 106 -25 131 -13 42 -13 46 3 46 10 0 29 -12 43 -27z m-4536 -80 c-3
-21 -11 -78 -17 -128 -14 -106 -21 -130 -48 -144 -19 -11 -19 -7 -17 119 2
128 2 130 31 160 41 42 58 40 51 -7z m4650 11 c14 -10 31 -29 38 -43 20 -38
29 -131 21 -208 l-7 -68 -23 27 c-16 19 -25 46 -30 85 -7 70 -23 170 -31 201
-8 26 -2 27 32 6z m-4785 -196 c-9 -98 -16 -139 -29 -157 -36 -49 -40 -38 -39
105 l2 136 34 29 c19 16 37 27 39 24 2 -2 -1 -64 -7 -137z m4915 107 c40 -27
54 -76 53 -177 -1 -51 -4 -104 -8 -117 l-7 -25 -20 22 c-16 17 -23 46 -32 139
-7 65 -15 130 -18 146 -7 30 2 34 32 12z m-5032 -142 c-8 -158 -14 -192 -39
-221 l-23 -26 -7 116 c-4 65 -4 130 0 145 6 25 49 72 66 73 4 0 5 -39 3 -87z
m5157 47 c45 -25 59 -104 43 -258 l-7 -60 -22 26 c-19 23 -23 44 -29 135 -4
59 -9 121 -13 137 -6 33 -2 35 28 20z m-5277 -177 c-6 -140 -15 -182 -43 -207
-18 -17 -19 -14 -26 96 -8 133 2 187 43 217 15 11 28 21 30 21 1 0 0 -57 -4
-127z m5426 44 c23 -36 25 -98 9 -196 -12 -77 -16 -86 -34 -71 -17 14 -22 57
-29 207 -4 110 -4 113 15 102 11 -5 29 -25 39 -42z m-5547 -164 c-3 -100 -8
-147 -20 -170 -9 -18 -19 -33 -23 -33 -10 0 -30 219 -23 255 5 28 48 85 64 85
3 0 5 -62 2 -137z m5651 76 c22 -26 26 -40 26 -92 0 -34 -8 -96 -17 -139 -16
-75 -17 -77 -32 -56 -12 18 -15 55 -16 170 -1 81 2 148 6 148 4 0 19 -14 33
-31z m-5764 -194 c0 -117 -3 -151 -16 -170 -9 -14 -20 -25 -24 -25 -13 0 -36
225 -27 263 8 28 44 77 58 77 5 0 9 -63 9 -145z m5884 81 c21 -33 20 -107 -3
-216 l-17 -85 -17 32 c-14 26 -17 60 -17 173 0 134 1 140 19 131 10 -6 26 -21
35 -35z m-5992 -242 c3 -90 1 -104 -17 -124 l-20 -22 -7 34 c-43 191 -42 236
5 286 l22 24 7 -49 c4 -26 9 -94 10 -149z m6096 126 c12 -19 22 -48 22 -68 0
-42 -40 -212 -50 -212 -4 0 -12 12 -19 26 -15 34 -4 296 13 291 6 -2 21 -18
34 -37z m-6202 -176 c16 -122 14 -166 -10 -197 -12 -16 -16 -7 -36 73 -32 128
-32 191 -1 224 14 14 26 24 28 23 2 -2 10 -57 19 -123z m6321 43 c17 -33 13
-59 -24 -170 -15 -42 -31 -76 -37 -74 -12 4 -13 78 -1 215 8 91 8 92 28 75 10
-10 26 -31 34 -46z m-6412 -197 c18 -92 18 -118 0 -150 -10 -19 -15 -21 -19
-10 -2 8 -16 47 -29 85 -43 124 -43 170 1 219 16 18 17 16 25 -25 4 -24 14
-78 22 -119z m6489 103 c8 -16 29 -41 46 -58 17 -16 39 -43 47 -59 l15 -29
-51 6 c-28 3 -53 3 -55 -1 -13 -21 40 -54 71 -46 29 8 72 -17 121 -70 43 -47
54 -73 27 -62 -19 7 -100 27 -208 51 -42 10 -82 24 -88 31 -14 17 27 170 53
196 22 22 23 28 3 28 -8 0 -15 9 -15 20 0 28 17 25 34 -7z m-6604 -90 c0 -9
12 -65 27 -124 21 -82 25 -115 18 -135 -6 -15 -14 -29 -20 -31 -15 -5 -78 166
-79 217 0 29 6 55 18 72 19 29 36 29 36 1z m-90 -121 c0 -10 13 -61 30 -112
33 -105 36 -136 16 -163 -12 -16 -18 -8 -55 76 -44 102 -50 141 -26 187 17 34
35 39 35 12z m-86 -114 c2 -7 20 -63 40 -124 31 -95 35 -115 25 -142 -6 -18
-14 -32 -17 -32 -9 1 -90 177 -98 212 -10 44 38 126 50 86z m6909 -14 c95 -17
141 -37 167 -74 31 -43 24 -48 -37 -29 -32 10 -92 25 -134 34 -66 14 -82 22
-115 56 l-39 41 40 -7 c22 -4 75 -13 118 -21z m-6987 -121 c3 -10 23 -64 45
-120 34 -88 38 -105 28 -127 -7 -14 -15 -26 -18 -26 -8 0 -96 166 -106 197 -7
24 20 93 36 93 5 0 12 -8 15 -17z m7077 -14 c46 -7 91 -21 109 -33 34 -23 75
-73 66 -81 -3 -3 -61 11 -129 30 -88 26 -132 44 -151 62 -35 34 -35 46 0 39
15 -3 62 -10 105 -17z m-7153 -112 c0 -7 22 -56 48 -108 42 -82 48 -98 40
-126 -5 -18 -12 -33 -17 -33 -10 0 -106 156 -116 188 -8 29 12 92 31 92 8 0
14 -6 14 -13z m7261 -28 c25 -5 59 -19 77 -29 30 -18 72 -73 72 -94 0 -10 0
-10 -153 45 -101 36 -120 46 -134 72 l-15 30 54 -7 c29 -4 73 -12 99 -17z
m-7283 -194 c56 -113 57 -119 42 -161 l-11 -28 -36 50 c-46 64 -83 142 -83
177 0 30 16 67 28 67 4 0 31 -47 60 -105z m7360 43 c69 -21 123 -62 142 -108
16 -38 9 -46 -22 -27 -12 8 -65 32 -117 53 -91 38 -157 86 -145 105 7 11 55 3
142 -23z m-7373 -325 c-3 -18 -10 -33 -15 -33 -14 0 -109 148 -121 191 -11 34
-10 45 5 76 l17 36 60 -119 c49 -98 59 -125 54 -151z m7401 183 c88 -29 123
-48 151 -78 21 -22 65 -109 59 -116 -3 -3 -49 23 -199 111 -66 39 -97 69 -97
94 0 17 6 17 86 -11z m-7546 -107 c12 -22 39 -70 61 -105 42 -69 46 -90 26
-118 -12 -16 -16 -14 -50 28 -76 92 -102 164 -81 220 10 26 22 19 44 -25z
m7630 -75 c130 -54 190 -111 190 -177 l0 -28 -42 29 c-24 16 -76 48 -115 71
-78 46 -128 91 -136 122 -7 26 6 24 103 -17z m-7681 -70 c14 -25 42 -72 63
-104 39 -60 45 -84 28 -110 -7 -12 -12 -11 -31 5 -12 11 -38 43 -58 70 -59 81
-73 125 -51 166 15 28 22 24 49 -27z m-58 -126 c12 -23 44 -71 71 -107 27 -36
46 -71 43 -79 -3 -7 -5 -20 -5 -28 0 -23 -15 -16 -59 29 -57 57 -101 125 -101
153 0 25 16 74 25 74 2 0 14 -19 26 -42z m7806 12 c37 -17 82 -42 101 -56 34
-27 72 -79 72 -101 0 -7 -50 14 -112 47 -78 41 -120 69 -135 92 -41 59 -25 63
74 18z m-7801 -215 c51 -68 67 -97 65 -119 -4 -63 -16 -57 -103 52 -58 73 -70
109 -52 157 8 20 5 23 90 -90z m7871 56 c85 -41 126 -77 142 -123 13 -36 3
-36 -61 5 -29 19 -81 48 -115 66 -45 24 -65 41 -72 62 -14 40 5 39 106 -10z
m-7968 -118 c5 -10 37 -52 70 -93 44 -54 60 -83 61 -105 0 -56 -13 -58 -62 -7
-74 77 -108 130 -108 172 0 51 20 68 39 33z m8018 -24 c71 -41 117 -89 132
-140 7 -22 10 -43 8 -46 -3 -2 -57 34 -121 82 -101 74 -136 111 -136 142 0 12
66 -9 117 -38z m-8005 -189 c74 -98 88 -121 88 -149 0 -52 -43 -26 -121 75
-50 65 -63 102 -49 139 6 15 12 26 14 24 2 -2 33 -42 68 -89z m8108 -40 c45
-42 83 -120 67 -136 -7 -8 -184 133 -220 175 -15 18 -27 43 -27 56 0 23 0 23
66 -13 37 -20 88 -57 114 -82z m-8124 -129 c33 -42 66 -87 73 -99 13 -25 7
-72 -8 -72 -13 0 -130 130 -148 164 -26 49 -15 146 11 102 6 -10 38 -53 72
-95z m8063 25 c84 -54 128 -96 147 -141 16 -38 18 -65 6 -65 -12 0 -163 126
-199 167 -28 31 -45 83 -27 83 3 0 36 -20 73 -44z m-8142 -117 c15 -20 54 -67
86 -105 56 -67 73 -113 46 -130 -12 -7 -105 79 -150 140 -23 31 -29 50 -29 88
0 27 4 48 10 46 5 -1 22 -19 37 -39z m8148 -38 c64 -37 142 -105 160 -142 8
-15 15 -40 15 -54 l0 -27 -31 20 c-71 44 -182 146 -195 178 -26 63 -20 66 51
25z m-8035 -287 c20 -40 19 -74 -3 -74 -15 0 -131 120 -157 162 -19 32 -27 88
-13 101 10 10 150 -143 173 -189z m8074 104 c86 -46 142 -104 151 -157 4 -23
4 -45 1 -48 -10 -10 -190 143 -213 182 -13 21 -17 55 -7 55 3 0 34 -15 68 -32z
m-8197 -127 c104 -115 123 -142 123 -172 0 -17 -5 -29 -13 -29 -19 0 -131 104
-156 144 -20 31 -30 116 -14 116 3 0 30 -27 60 -59z m8244 -62 c76 -54 111
-105 107 -155 l-3 -38 -77 68 c-85 75 -124 121 -134 160 -6 25 -5 26 21 16 15
-6 54 -29 86 -51z m-8224 -126 c46 -49 89 -99 94 -112 10 -25 6 -51 -8 -51
-13 0 -146 119 -165 148 -16 25 -26 102 -12 102 3 0 44 -39 91 -87z m8225 -32
c40 -32 83 -77 96 -99 22 -39 30 -92 14 -92 -12 0 -202 197 -202 209 0 5 -3
16 -6 25 -12 32 26 15 98 -43z m-8213 -134 c74 -72 91 -94 91 -118 0 -16 -3
-29 -7 -29 -11 0 -107 78 -150 122 -23 24 -42 52 -43 63 -4 36 0 57 9 53 6 -1
51 -43 100 -91z m8159 26 c40 -25 132 -114 148 -145 16 -30 19 -88 5 -88 -11
0 -161 162 -178 193 -13 23 -17 57 -8 57 3 0 18 -8 33 -17z m-8155 -175 c78
-74 97 -99 97 -121 0 -26 -2 -27 -22 -16 -34 17 -157 119 -174 143 -15 22 -20
86 -6 86 5 0 52 -42 105 -92z m8221 -37 c68 -66 86 -96 86 -148 l-1 -38 -66
70 c-87 92 -123 143 -123 172 0 21 2 23 23 12 12 -7 48 -37 81 -68z m-8211
-114 c77 -73 97 -98 97 -119 0 -16 -3 -28 -6 -28 -22 0 -182 131 -201 164 -16
28 -16 76 0 76 6 0 56 -42 110 -93z m8165 0 c72 -59 114 -119 119 -171 3 -24
1 -46 -4 -49 -5 -3 -48 43 -96 101 -62 77 -87 115 -87 135 0 15 3 27 8 27 4 0
31 -19 60 -43z m-8174 -135 c107 -92 129 -120 124 -156 l-3 -27 -47 31 c-74
49 -150 121 -164 157 -15 35 -18 73 -6 72 4 0 47 -35 96 -77z m8186 -46 c61
-63 89 -109 89 -146 1 -62 -15 -53 -98 52 -63 81 -81 110 -81 136 0 28 2 31
18 23 10 -5 43 -35 72 -65z m-8045 -246 c16 -31 20 -60 7 -60 -4 0 -25 12 -47
27 -121 81 -185 154 -185 210 l0 34 105 -92 c58 -50 112 -104 120 -119z m8018
101 c69 -71 87 -103 87 -149 0 -58 -15 -52 -80 34 -91 119 -98 131 -92 159 2
14 8 25 12 25 3 0 37 -31 73 -69z m-8110 -153 c105 -95 147 -142 147 -165 0
-21 -22 -15 -76 18 -74 47 -130 95 -152 132 -21 33 -40 107 -27 107 3 0 52
-41 108 -92z m8067 30 c67 -66 100 -125 100 -175 0 -24 -4 -43 -9 -43 -5 0
-22 18 -38 40 -15 23 -47 66 -71 97 -43 57 -59 94 -47 112 10 18 21 13 65 -31z
m-21 -158 c63 -60 96 -127 86 -176 -3 -19 -10 -34 -14 -34 -5 0 -41 50 -80
111 -49 76 -70 117 -66 130 4 11 10 19 14 19 4 0 31 -22 60 -50z m-8088 14 c7
-8 52 -43 101 -76 95 -65 118 -89 118 -125 0 -23 -1 -23 -30 -8 -67 34 -169
106 -194 136 -15 17 -26 43 -26 60 0 32 11 37 31 13z m8085 -197 c24 -32 46
-73 50 -92 6 -34 -2 -75 -14 -75 -4 1 -37 46 -74 101 -61 90 -79 134 -62 152
12 11 57 -28 100 -86z m-7971 -18 c100 -65 165 -127 165 -154 0 -23 -28 -18
-89 17 -125 70 -176 119 -188 179 -7 38 -12 40 112 -42z m7898 -78 c53 -56 87
-119 87 -158 0 -33 -19 -65 -27 -46 -2 7 -33 55 -69 107 -60 88 -74 123 -57
139 12 13 20 7 66 -42z m-7925 -42 c15 -11 72 -51 127 -87 68 -46 103 -76 109
-94 5 -15 7 -30 4 -33 -8 -8 -116 47 -185 92 -55 36 -93 86 -93 122 0 26 5 26
38 0z m7887 -96 c25 -31 53 -69 61 -85 16 -31 15 -109 -1 -115 -6 -2 -31 32
-57 75 -26 44 -54 85 -63 92 -22 18 -18 90 6 90 4 0 29 -25 54 -57z m-7745
-129 c94 -55 170 -123 170 -153 0 -19 -2 -19 -39 -6 -99 35 -192 100 -232 164
-37 57 -39 80 -6 59 12 -8 60 -37 107 -64z m7701 -6 c65 -82 87 -157 58 -198
-12 -18 -4 -28 -85 109 -49 81 -55 97 -45 117 6 13 15 24 21 24 5 0 28 -24 51
-52z m-63 -123 c66 -76 85 -130 68 -198 -9 -36 -22 -34 -35 6 -6 18 -32 68
-57 111 -33 57 -44 84 -40 102 9 34 19 30 64 -21z m-7523 -88 c72 -39 105 -63
119 -87 l20 -33 -43 7 c-23 3 -76 22 -116 41 -82 39 -140 99 -152 155 l-6 34
39 -31 c21 -17 84 -56 139 -86z m7488 -71 c44 -65 57 -128 38 -178 -15 -39
-26 -35 -40 15 -7 23 -31 75 -52 116 -36 67 -39 77 -28 103 14 35 24 28 82
-56z m-7419 -92 c79 -29 143 -75 131 -94 -19 -30 -181 13 -232 61 -35 34 -63
78 -63 99 0 6 19 0 43 -13 23 -14 78 -38 121 -53z m7348 -24 c42 -71 61 -128
52 -156 -10 -32 -27 -64 -34 -64 -3 0 -14 26 -24 58 -10 31 -32 83 -48 116
-26 52 -28 62 -17 88 6 16 16 27 22 25 5 -1 27 -32 49 -67z m-46 -175 c27 -58
30 -92 10 -140 -19 -45 -33 -44 -41 3 -3 21 -22 74 -41 118 -39 91 -39 92 -18
123 l17 24 24 -39 c14 -22 35 -61 49 -89z m-7318 71 c22 -8 71 -17 109 -20 68
-6 79 -12 105 -60 10 -18 6 -19 -79 -14 -92 5 -121 15 -161 52 -58 52 -48 68
26 42z m7221 -157 c24 -47 41 -96 41 -115 0 -36 -27 -114 -40 -114 -4 0 -13
28 -20 62 -6 35 -23 91 -37 125 -22 55 -24 67 -13 93 7 17 16 30 21 30 4 0 26
-37 48 -81z m-7072 24 c84 -5 94 -8 119 -34 15 -16 24 -32 20 -36 -4 -5 -43
-10 -85 -11 -64 -3 -85 0 -119 17 -59 30 -99 91 -49 77 12 -4 63 -10 114 -13z
m7023 -265 c0 -47 -31 -128 -49 -128 -4 0 -11 28 -13 63 -3 34 -15 94 -28 134
-21 69 -21 73 -4 105 l17 33 39 -80 c28 -58 38 -92 38 -127z m-7010 132 c27
-5 66 -4 99 2 53 9 55 9 85 -21 16 -17 27 -34 23 -38 -4 -4 -39 -12 -78 -19
-86 -14 -120 -6 -166 38 -51 49 -46 54 37 38z m6913 -255 c1 -59 -21 -125 -43
-125 -5 0 -11 26 -15 58 -4 31 -13 83 -21 115 -18 76 -18 107 3 136 l16 24 30
-74 c20 -50 29 -93 30 -134z m-6644 121 c13 -14 20 -29 17 -35 -12 -19 -117
-44 -163 -38 -33 3 -54 14 -79 38 -19 18 -34 36 -34 39 0 3 26 4 58 2 31 -2
73 1 92 6 58 17 85 14 109 -12z m6551 -249 c0 -43 -19 -96 -42 -115 -13 -10
-16 -3 -21 62 -3 40 -13 101 -22 134 -17 60 -17 61 5 98 l23 37 29 -89 c15
-49 28 -106 28 -127z m-6473 141 c32 -30 29 -43 -17 -62 -90 -36 -148 -33
-199 10 -45 37 -40 47 22 41 37 -5 68 -1 107 12 30 11 57 19 59 20 3 1 15 -9
28 -21z m6352 -137 c29 -84 31 -146 6 -195 -27 -54 -45 -58 -45 -9 0 21 -7 78
-16 127 -15 82 -15 91 0 124 20 42 27 36 55 -47z m-6254 19 c16 -16 27 -32 24
-34 -11 -10 -145 -46 -174 -46 -32 0 -95 35 -102 56 -2 7 20 13 59 17 35 3 81
12 103 20 56 21 58 20 90 -13z m6156 -151 c27 -108 21 -165 -21 -212 l-29 -32
-1 65 c0 36 -5 102 -11 146 -11 75 -10 84 7 107 11 14 22 22 26 19 4 -4 17
-46 29 -93z m-6071 46 c27 -29 28 -26 -28 -54 -86 -44 -166 -37 -215 17 -17
19 -16 19 50 25 38 3 86 13 108 21 54 20 58 20 85 -9z m5957 -122 c25 -83 24
-193 -3 -229 -11 -15 -25 -29 -31 -31 -15 -5 -25 275 -10 299 18 28 24 23 44
-39z m-5862 17 l28 -30 -49 -22 c-27 -12 -77 -24 -110 -26 -57 -4 -64 -2 -94
25 l-33 30 60 6 c34 4 83 15 109 26 62 25 56 26 89 -9z m5772 -267 c-3 -64
-28 -115 -58 -121 -11 -2 -14 24 -14 142 0 129 2 146 20 166 l19 21 18 -73
c12 -44 17 -97 15 -135z m-5676 171 c24 -25 24 -26 5 -40 -29 -21 -123 -54
-154 -54 -34 0 -96 32 -100 52 -2 12 11 16 56 20 32 3 76 15 98 26 51 28 66
27 95 -4z m108 -103 l35 -29 -42 -21 c-68 -35 -151 -53 -188 -41 -29 10 -73
46 -63 53 2 2 33 9 69 16 35 7 80 21 100 31 46 25 49 24 89 -9z m5446 -66 c21
-111 12 -165 -35 -210 l-28 -26 2 144 c1 127 3 147 20 166 11 12 20 21 21 21
1 0 10 -43 20 -95z m-5335 -30 c23 -25 23 -25 4 -41 -28 -23 -116 -62 -156
-69 -31 -6 -41 -2 -73 26 l-38 34 63 12 c34 7 81 24 104 37 53 31 68 31 96 1z
m5214 -27 c21 -152 18 -188 -25 -242 -34 -43 -47 -34 -38 27 4 28 8 90 8 136
1 64 5 89 18 103 24 27 30 23 37 -24z m-5118 -49 c22 -24 30 -127 17 -224 l-8
-59 -35 31 c-34 31 -34 32 -23 74 6 24 10 46 7 48 -2 2 -21 -4 -43 -13 -21
-10 -47 -15 -57 -12 -33 12 -77 53 -71 68 3 8 33 25 66 37 34 12 74 33 89 46
33 30 34 30 58 4z m5010 -213 c-8 -40 -50 -96 -73 -96 -12 0 -14 7 -9 28 4 15
9 76 13 135 5 101 8 109 32 128 l26 21 9 -90 c5 -50 6 -106 2 -126z m-4898
136 c16 -16 20 -41 25 -153 3 -73 3 -136 1 -139 -3 -3 -22 13 -41 34 l-36 39
7 75 c3 41 6 95 6 119 0 47 10 53 38 25z m4777 -89 c4 -48 2 -98 -5 -128 -16
-72 -68 -121 -84 -80 -3 8 -14 15 -25 15 -31 0 -183 32 -214 45 l-28 12 40 18
c34 15 57 17 141 12 55 -3 100 -2 100 1 0 4 5 40 10 81 9 67 25 99 51 101 4 0
10 -35 14 -77z m-4662 9 c10 -11 18 -44 21 -85 4 -37 8 -96 11 -132 6 -76 -7
-85 -49 -34 -25 29 -26 36 -26 150 0 125 7 141 43 101z m4531 -46 c-5 -21 -12
-26 -35 -26 -16 0 -29 4 -29 9 0 9 62 50 68 46 2 -2 0 -14 -4 -29z m-4406 -39
c7 -8 17 -59 22 -113 5 -55 12 -114 16 -131 8 -42 -5 -42 -48 -4 l-33 29 -3
127 c-4 122 -3 126 15 116 11 -5 25 -16 31 -24z m110 -64 c15 -14 24 -43 36
-118 8 -55 18 -115 22 -132 9 -45 -14 -44 -55 2 -25 29 -31 44 -31 83 0 26 -3
77 -7 115 -6 72 0 80 35 50z m119 -68 c15 -10 26 -37 38 -92 9 -43 23 -102 32
-131 8 -30 12 -56 9 -59 -12 -12 -56 17 -76 49 -10 17 -21 54 -24 82 -10 96
-13 166 -7 166 4 0 16 -7 28 -15z m4023 -5 c70 -11 135 -23 144 -26 32 -12 13
-34 -45 -53 -41 -13 -134 2 -259 41 l-75 24 45 16 c58 21 41 21 190 -2z
m-3879 -82 c18 -34 90 -260 84 -266 -10 -10 -54 18 -79 50 -19 25 -29 58 -41
128 -20 127 -20 133 5 120 11 -6 25 -20 31 -32z m3743 -15 c77 -14 145 -30
150 -34 4 -4 -7 -15 -25 -25 -59 -31 -198 -16 -354 40 -39 14 -40 15 -15 24
14 5 32 12 40 15 28 10 62 7 204 -20z m-3631 -23 c14 -11 29 -31 33 -43 4 -12
26 -68 50 -124 56 -131 56 -140 4 -113 -52 27 -63 46 -95 165 -15 55 -29 108
-32 118 -7 23 8 22 40 -3z m3392 -50 c17 -5 66 -16 110 -25 146 -29 135 -24
95 -45 -64 -35 -200 -19 -375 43 l-40 14 35 11 c71 22 102 22 175 2z m-3250
-12 c20 -18 93 -160 142 -277 8 -17 -31 -7 -67 18 -42 30 -57 64 -117 264 -7
24 11 21 42 -5z m135 -43 c21 -11 45 -47 94 -144 36 -71 66 -132 66 -135 0
-14 -50 -4 -74 15 -32 25 -45 50 -84 159 -17 47 -33 93 -37 103 -9 21 -2 21
35 2z m2969 -34 c66 -16 140 -33 165 -36 53 -8 57 -17 19 -34 -74 -34 -153
-25 -332 37 -103 36 -104 36 -75 49 45 19 93 16 223 -16z m-2803 -35 c12 -11
40 -55 62 -96 22 -41 51 -94 63 -117 26 -46 22 -59 -14 -49 -51 12 -82 59
-140 209 -33 83 -33 87 -13 81 11 -3 31 -16 42 -28z m2608 -40 c62 -19 134
-37 160 -41 25 -4 48 -11 51 -15 3 -5 -15 -16 -40 -26 -75 -28 -148 -14 -359
73 -65 26 -67 28 -40 34 63 14 120 8 228 -25z m-2454 -6 c15 -16 46 -64 68
-107 23 -43 50 -91 62 -108 26 -40 26 -42 -14 -37 -50 6 -80 43 -136 170 -45
104 -48 112 -29 112 12 0 33 -13 49 -30z m154 -47 c33 -41 146 -223 146 -235
0 -5 -7 -7 -16 -4 -9 3 -22 6 -29 6 -30 0 -82 61 -110 127 -16 37 -37 83 -47
101 -10 18 -18 37 -18 42 0 17 51 -9 74 -37z m2104 -8 c64 -24 137 -49 162
-56 41 -10 43 -12 26 -25 -58 -42 -177 -20 -298 54 -35 22 -74 43 -86 46 -35
11 -15 26 34 26 29 0 86 -16 162 -45z m-1981 2 c12 -7 30 -23 41 -37 38 -49
140 -218 135 -224 -9 -9 -56 5 -85 26 -16 11 -48 61 -78 121 -29 56 -56 108
-62 115 -14 16 19 16 49 -1z m1826 -62 c74 -36 140 -65 146 -65 6 0 11 -4 11
-9 0 -31 -126 -29 -188 3 -62 32 -193 132 -184 141 15 15 87 -8 215 -70z
m-1675 36 c9 -5 40 -42 67 -81 28 -39 65 -91 83 -115 17 -24 32 -46 32 -49 0
-15 -70 -4 -93 14 -36 28 -143 240 -122 240 9 0 24 -4 33 -9z m1439 -38 c37
-25 99 -63 138 -84 70 -38 70 -38 42 -48 -73 -28 -142 2 -251 107 -36 35 -66
66 -66 68 0 2 15 4 34 4 25 0 54 -13 103 -47z m-1273 -1 c10 -9 54 -64 98
-122 77 -103 78 -105 52 -108 -62 -8 -89 20 -175 173 -18 33 -36 62 -41 63 -4
2 -8 8 -8 14 0 14 51 0 74 -20z m1159 -55 c51 -41 103 -80 116 -87 53 -27 -37
-47 -94 -21 -44 21 -199 174 -187 185 20 20 78 -7 165 -77z m-1023 53 c11 -6
54 -54 96 -108 42 -53 84 -105 92 -114 14 -17 12 -18 -28 -18 -38 0 -48 5 -84
43 -23 23 -56 69 -74 102 -18 33 -40 70 -48 83 -16 21 -15 22 5 22 12 0 31 -5
41 -10z m840 -52 c39 -35 88 -76 110 -93 51 -39 51 -55 0 -55 -67 0 -101 25
-208 158 l-43 52 35 0 c29 0 48 -11 106 -62z m-688 41 c20 -10 197 -208 206
-231 7 -16 -64 -7 -94 11 -30 18 -55 50 -138 179 -30 45 -32 52 -16 52 11 0
29 -5 42 -11z m416 -106 c56 -58 102 -110 102 -114 0 -18 -68 -8 -101 14 -43
28 -172 199 -157 208 24 15 59 -9 156 -108z m68 95 c33 -25 194 -185 194 -193
0 -3 -20 -5 -45 -5 -55 0 -90 29 -176 142 l-60 78 29 0 c15 0 42 -10 58 -22z
m-284 -35 c23 -26 69 -75 101 -108 31 -34 57 -67 57 -73 0 -16 -45 -15 -78 2
-34 18 -69 56 -112 121 -18 28 -44 62 -58 78 l-26 27 36 0 c30 0 43 -8 80 -47z"/>
<path d="M4965 8820 c-547 -28 -1058 -171 -1589 -444 -384 -198 -751 -495
-1065 -860 -249 -290 -491 -696 -616 -1036 -184 -498 -278 -1109 -246 -1600 6
-104 20 -248 31 -318 34 -232 122 -570 189 -728 l27 -64 262 -2 c144 -2 262
-2 262 -1 0 2 -18 32 -40 68 -137 224 -240 496 -275 730 -17 115 -20 362 -5
485 22 181 97 437 183 626 70 154 137 262 311 497 78 106 192 263 254 350 323
450 598 717 975 946 496 301 1105 470 1617 447 378 -17 711 -93 1057 -242 174
-75 292 -139 458 -248 261 -172 493 -378 684 -606 120 -143 502 -670 643 -885
192 -294 301 -622 329 -991 17 -233 -11 -450 -87 -684 -36 -109 -151 -351
-209 -438 l-33 -50 42 -4 c22 -2 142 -2 264 0 l224 5 20 46 c85 199 179 563
220 851 20 147 17 738 -6 898 -128 917 -459 1579 -1103 2213 -275 270 -494
429 -848 615 -600 314 -1255 458 -1930 424z m65 -156 c41 -12 66 -29 109 -72
73 -75 96 -135 88 -237 -14 -194 -172 -316 -368 -284 -115 18 -190 73 -234
171 -55 122 -30 253 66 343 46 43 60 51 139 81 48 18 136 17 200 -2z m529 -4
c74 -11 136 -22 139 -24 2 -3 1 -26 -3 -51 -6 -43 -8 -46 -30 -41 -13 3 -26 2
-29 -3 -6 -8 -34 -178 -55 -328 -7 -50 -7 -51 21 -57 25 -5 28 -10 28 -43 0
-67 0 -67 -164 -47 l-146 18 0 41 c0 53 11 68 46 63 l28 -3 28 185 c15 102 27
188 28 191 0 4 -14 9 -31 13 -29 6 -31 8 -25 37 3 17 6 40 6 50 0 23 -6 23
159 -1z m700 -142 c58 -22 151 -103 151 -131 0 -9 -2 -17 -5 -17 -3 0 -40 -7
-81 -15 -73 -16 -75 -16 -106 7 -21 14 -51 23 -88 26 -50 4 -60 1 -88 -23 -46
-38 -65 -81 -66 -146 -1 -70 20 -104 82 -131 44 -20 105 -21 168 -3 16 5 28
-4 60 -52 21 -32 40 -61 42 -65 8 -16 -108 -42 -193 -42 -78 -1 -98 3 -152 28
-70 32 -144 104 -170 164 -11 23 -17 65 -17 112 0 236 225 377 463 288z
m-1967 -8 l27 -13 -57 -63 -57 -63 -55 5 c-138 14 -220 -111 -161 -243 22 -48
79 -83 134 -83 44 0 133 45 159 81 26 34 34 35 90 10 24 -11 51 -22 61 -25 18
-6 18 -7 0 -37 -29 -49 -109 -118 -171 -147 -49 -23 -70 -27 -152 -27 -78 0
-104 4 -145 23 -220 101 -238 405 -31 536 84 54 129 66 236 62 52 -1 107 -9
122 -16z m2631 -308 c53 -30 97 -59 97 -63 0 -5 -16 -99 -36 -211 -51 -286
-51 -292 -24 -311 l23 -16 -27 -41 c-14 -22 -29 -40 -31 -40 -17 0 -235 154
-235 165 0 23 22 65 35 65 6 0 17 -6 23 -12 10 -10 15 -10 22 2 5 8 10 20 10
26 0 14 -147 104 -171 104 -26 0 -24 -26 2 -33 21 -6 21 -6 -6 -54 -15 -26
-29 -49 -30 -51 -2 -2 -27 12 -56 31 -30 19 -82 48 -116 66 -35 17 -63 35 -63
39 0 4 14 23 30 42 23 28 31 33 41 23 26 -26 29 -25 262 155 89 69 106 86 96
98 -9 11 -9 24 0 54 14 46 -2 50 154 -38z m-3425 -16 c102 -54 136 -197 72
-302 -20 -31 -114 -101 -188 -138 -34 -18 -34 -19 1 -69 18 -26 21 -27 36 -13
10 9 24 16 32 16 13 -1 59 -62 59 -80 0 -10 -249 -170 -265 -170 -6 0 -45 77
-45 89 0 5 9 13 20 16 11 3 20 11 20 17 0 5 -44 79 -97 164 -93 145 -120 173
-138 144 -12 -20 -30 -9 -52 29 l-23 39 29 25 c47 39 322 212 366 230 50 20
137 22 173 3z m4080 -435 c73 -62 132 -117 132 -120 0 -4 -16 -22 -35 -41
l-35 -34 -45 44 -45 45 -40 -45 c-21 -25 -39 -47 -39 -50 -1 -3 17 -24 39 -48
22 -24 40 -45 40 -48 0 -6 -35 -41 -68 -68 -22 -19 -22 -19 -58 22 -20 23 -41
42 -47 42 -7 -1 -32 -18 -56 -40 l-44 -38 38 -52 38 -52 -30 -29 -29 -30 -35
34 c-18 18 -80 75 -136 126 -57 52 -103 99 -103 105 1 6 10 22 21 35 l20 24
29 -21 c16 -12 35 -22 42 -22 15 0 268 250 268 264 0 5 -10 20 -22 33 l-21 22
27 41 c32 48 12 58 194 -99z m-4678 -119 c66 -35 115 -86 145 -155 23 -51 27
-69 22 -121 -3 -34 -14 -82 -26 -109 -27 -63 -102 -136 -176 -173 -53 -25 -70
-29 -145 -28 -57 0 -98 6 -123 18 -51 23 -113 80 -145 135 -23 40 -27 57 -27
126 0 69 4 88 29 138 37 71 98 129 179 168 56 27 70 30 142 27 60 -2 91 -9
125 -26z m4872 -91 c2 -4 19 -28 40 -52 170 -204 208 -252 208 -259 0 -5 -21
-27 -47 -50 l-48 -42 -15 24 c-23 35 -91 108 -102 108 -5 0 -62 -44 -126 -98
-141 -118 -185 -152 -200 -152 -5 0 -41 34 -78 76 l-67 75 25 26 26 26 32 -23
31 -22 52 48 c29 27 91 82 140 123 48 41 87 77 87 80 0 4 -12 19 -27 35 l-27
29 32 28 c32 29 57 37 64 20z m-5432 -493 c32 -67 36 -109 19 -173 l-11 -39
-53 56 c-73 75 -77 95 -31 163 20 30 39 55 42 55 2 0 18 -28 34 -62z m5737 0
l35 -56 -21 -39 c-19 -39 -107 -120 -118 -110 -3 3 -8 35 -10 72 -5 60 -3 71
27 131 18 35 37 63 43 61 5 -1 25 -28 44 -59z m-5828 -180 c68 -15 83 -32 67
-78 l-11 -35 -110 3 c-60 2 -113 6 -117 8 -3 2 10 29 30 59 40 61 50 64 141
43z m5963 -42 c27 -39 34 -55 24 -59 -7 -3 -58 -8 -114 -12 -112 -8 -103 -13
-126 62 -8 26 12 40 77 53 90 17 99 15 139 -44z m-5711 -53 c55 -33 61 -114
12 -153 -80 -63 -188 30 -139 119 15 27 52 50 79 51 11 0 32 -8 48 -17z m5432
-23 c35 -39 35 -79 1 -119 -21 -26 -33 -31 -69 -31 -36 0 -48 5 -69 31 -84 99
49 215 137 119z m-5938 -302 c43 -81 38 -79 111 -58 35 10 64 15 64 10 0 -4
-15 -30 -33 -56 -29 -41 -39 -49 -70 -52 -26 -2 -41 2 -53 17 -17 19 -17 19
-46 -2 -25 -19 -28 -26 -28 -80 0 -52 2 -58 18 -52 9 4 23 8 30 8 6 0 12 6 12
14 0 7 4 13 8 13 12 0 32 -46 32 -72 0 -17 -2 -18 -15 -8 -8 7 -15 20 -16 29
0 11 -2 12 -6 3 -3 -7 -1 -18 5 -25 9 -12 27 -107 19 -107 -2 0 -21 25 -42 55
-20 30 -44 55 -51 55 -8 0 -37 -9 -65 -19 -32 -13 -49 -15 -46 -8 2 7 13 36
23 65 l19 53 -55 48 -55 49 70 6 c39 4 76 8 84 9 15 2 25 31 36 110 3 26 10
47 14 47 4 0 20 -24 36 -52z m6345 -20 c19 -97 18 -97 112 -100 l81 -3 -57
-47 c-31 -25 -61 -48 -66 -50 -6 -2 1 -26 15 -56 14 -28 25 -54 25 -56 0 -10
-114 44 -122 59 -6 9 -7 38 -3 65 6 41 3 54 -15 80 -28 39 -48 39 -52 -2 -3
-32 -4 -33 -43 -30 -23 2 -44 10 -50 19 -5 8 -20 31 -33 50 -13 20 -22 37 -20
39 2 1 34 -6 71 -16 l68 -18 31 69 c17 38 34 67 38 64 4 -2 13 -33 20 -67z
m-6168 -194 c21 -15 38 -31 38 -35 0 -5 -22 -9 -49 -9 -27 0 -62 -3 -79 -6
-27 -6 -33 -2 -51 27 -12 19 -21 37 -21 42 0 4 28 7 62 7 51 0 69 -5 100 -26z
m6116 2 c-3 -15 0 -27 8 -30 8 -3 14 -11 14 -18 0 -9 -3 -9 -11 2 -9 13 -10
12 -5 -2 3 -10 1 -18 -4 -18 -6 0 -10 -20 -10 -44 0 -25 -5 -57 -12 -73 -11
-26 -12 -23 -20 47 -5 41 -11 76 -13 78 -2 2 -37 6 -79 9 -42 3 -76 10 -76 14
0 5 17 20 37 34 31 21 49 25 106 25 68 0 69 0 65 -24z m32 -85 c0 -26 -10 -51
-21 -51 -7 0 -6 42 0 68 1 1 6 2 11 2 6 0 10 -9 10 -19z m149 -212 c21 -63 20
-79 -4 -79 -9 0 -22 26 -35 66 -24 80 -24 74 -1 74 15 0 24 -15 40 -61z
m-6598 -16 c-14 -56 -21 -69 -39 -71 -26 -4 -27 -1 -6 69 20 67 21 69 43 69
18 0 18 -3 2 -67z m6733 -164 c28 -33 35 -86 14 -107 -20 -20 -28 -14 -28 22
0 36 -24 70 -44 63 -18 -6 -19 -46 -2 -72 20 -30 20 -31 2 -38 -8 -3 -26 3
-40 14 -20 16 -26 29 -26 62 0 82 74 116 124 56z m-6889 -69 c15 -23 28 -30
53 -30 25 0 32 -4 32 -19 0 -10 -11 -26 -24 -34 -21 -14 -23 -22 -19 -57 4
-31 2 -40 -9 -40 -11 0 -98 49 -116 65 -2 2 -1 13 3 24 4 14 15 21 31 21 28 0
30 7 8 31 -18 20 -12 69 9 69 6 0 21 -14 32 -30z m6918 -142 c32 -17 46 -39
47 -75 0 -45 -9 -62 -40 -78 -33 -17 -84 -4 -100 25 -16 31 -12 95 8 112 32
28 55 33 85 16z m-6989 -134 c4 -14 4 -34 1 -45 -4 -11 -2 -19 4 -19 6 0 11
19 11 41 0 39 2 41 25 37 14 -3 25 -1 25 3 0 5 9 9 20 9 21 0 25 -16 14 -57
-4 -13 -13 -23 -20 -23 -8 0 -14 -4 -14 -10 0 -5 6 -9 13 -7 6 1 12 -7 12 -18
0 -16 -8 -21 -40 -23 -21 -2 -54 -1 -73 3 l-33 6 7 57 c3 31 8 60 11 65 9 16
31 5 37 -19z m7054 -126 c-2 -19 -10 -24 -45 -26 -38 -3 -43 -6 -43 -28 0 -25
-25 -43 -39 -28 -5 5 -11 30 -15 57 l-6 47 76 0 c72 0 75 -1 72 -22z m-6978
-78 c0 -23 -5 -30 -19 -30 -10 0 -24 -7 -31 -15 -11 -13 -8 -15 19 -15 26 0
31 -4 31 -25 0 -24 -2 -25 -70 -25 -63 0 -70 2 -70 20 0 10 8 23 18 29 14 8
15 13 5 30 -28 45 -18 53 75 59 41 3 42 2 42 -28z m6988 -82 c-3 -21 -9 -23
-69 -26 -54 -2 -68 0 -73 13 -11 29 3 35 75 35 67 0 70 -1 67 -22z m-7071
-170 c-2 -38 1 -43 22 -46 22 -3 23 -1 19 30 -7 45 -1 58 28 58 22 0 24 -4 24
-54 0 -47 -4 -57 -26 -75 -37 -29 -68 -26 -98 10 -39 46 -30 119 14 119 16 0
18 -7 17 -42z m7083 -28 c0 -54 -2 -60 -20 -60 -15 0 -22 9 -27 33 l-7 32 -6
-30 c-3 -17 -12 -31 -23 -33 -14 -3 -17 4 -17 32 0 20 -4 36 -10 36 -5 0 -10
-16 -10 -35 0 -28 -4 -35 -20 -35 -18 0 -20 7 -20 60 l0 60 80 0 80 0 0 -60z
m-47 -178 c33 -35 37 -90 7 -117 -18 -16 -20 -16 -26 -1 -3 9 -3 27 0 40 7 28
-15 51 -40 42 -12 -5 -14 -14 -9 -46 6 -35 4 -40 -12 -40 -28 0 -43 20 -42 55
1 43 12 65 40 81 36 20 52 17 82 -14z m-7043 -12 c0 -29 1 -30 49 -30 35 0 51
-4 55 -16 10 -26 -2 -34 -50 -34 -37 0 -44 -3 -44 -20 0 -13 -7 -20 -19 -20
-16 0 -20 10 -26 66 -6 51 -4 68 6 75 23 15 29 10 29 -21z m124 -224 c3 -14 3
-31 0 -39 -3 -8 -1 -18 5 -22 22 -13 12 -43 -16 -49 -76 -15 -101 -17 -106 -9
-3 4 -8 34 -12 66 -7 55 -7 57 16 57 13 0 31 5 39 10 8 5 27 10 41 10 20 0 28
-6 33 -24z m6895 18 c21 -5 31 -12 31 -25 0 -16 -8 -19 -58 -19 -60 0 -101 18
-88 38 8 13 65 16 115 6z m19 -79 c7 -6 -22 -97 -32 -101 -6 -2 -27 0 -46 4
-25 6 -36 15 -41 32 -7 23 -7 23 -8 3 -1 -12 -6 -25 -12 -29 -21 -12 -28 11
-17 60 l10 48 72 -7 c39 -4 72 -8 74 -10z m-6867 -167 c14 -23 18 -43 15 -67
-6 -42 -22 -59 -61 -67 -59 -11 -106 55 -84 115 13 35 37 51 76 51 27 0 37 -6
54 -32z m6829 -26 c0 -4 -9 -36 -21 -71 -16 -46 -25 -61 -38 -59 -9 2 -15 11
-15 21 1 12 -12 20 -45 30 -66 18 -62 42 8 42 46 0 55 3 62 23 8 21 49 33 49
14z m-6818 -214 c2 -19 11 -24 43 -28 62 -8 54 -35 -19 -65 -33 -13 -63 -22
-68 -19 -15 9 -8 31 15 48 l22 17 -22 -6 c-18 -5 -25 -1 -34 19 -16 35 -5 56
30 56 23 0 30 -5 33 -22z m6748 12 c0 -10 -57 -130 -67 -140 -8 -9 -32 32 -26
46 3 9 -7 19 -31 29 -28 12 -36 21 -36 40 0 31 21 33 60 5 l29 -21 17 26 c16
24 54 35 54 15z"/>
<path d="M4850 8512 c-98 -52 -93 -240 8 -288 123 -58 235 86 172 223 -34 75
-109 102 -180 65z"/>
<path d="M6773 8014 c-29 -25 -53 -50 -53 -55 0 -7 71 -49 83 -49 3 0 10 27
16 61 7 34 15 67 18 75 9 25 -11 15 -64 -32z"/>
<path d="M3305 8026 c-16 -7 -45 -25 -63 -40 l-32 -28 25 -41 c14 -23 29 -48
34 -56 13 -21 52 -7 104 40 38 33 47 47 47 73 0 59 -49 81 -115 52z"/>
<path d="M2665 7489 c-35 -17 -67 -74 -67 -121 -3 -162 189 -229 273 -96 41
66 5 174 -71 213 -32 17 -104 19 -135 4z"/>
<path d="M1690 5595 c-10 -12 -10 -15 4 -15 9 0 16 7 16 15 0 8 -2 15 -4 15
-2 0 -9 -7 -16 -15z"/>
<path d="M8580 5472 c0 -35 23 -48 45 -25 23 22 14 47 -18 51 -24 3 -27 0 -27
-26z"/>
<path d="M1670 4479 c0 -17 5 -29 11 -27 6 2 10 7 10 11 -1 4 -1 16 -1 27 0
11 -4 20 -10 20 -5 0 -10 -14 -10 -31z"/>
<path d="M8597 4414 c-4 -4 -7 -14 -7 -23 0 -11 3 -12 11 -4 6 6 10 16 7 23
-2 6 -7 8 -11 4z"/>
<path d="M1715 4249 c-9 -27 14 -52 39 -43 25 10 17 58 -11 62 -15 2 -23 -3
-28 -19z"/>
<path d="M4997 7789 c-564 -34 -1179 -285 -1652 -674 -206 -170 -414 -387
-401 -420 9 -24 18 -19 80 44 l59 60 46 -38 c25 -21 118 -94 206 -162 317
-248 390 -298 406 -282 8 8 -80 83 -300 259 -171 136 -311 253 -311 259 0 6
29 40 65 75 l65 65 123 -123 c105 -105 125 -121 136 -108 18 21 7 37 -108 151
-56 55 -101 105 -101 111 0 12 166 144 180 144 5 0 52 -43 106 -95 87 -84 134
-114 134 -86 0 5 -43 55 -95 110 -52 56 -95 105 -95 110 0 4 42 35 93 69 l92
62 27 -33 c14 -18 71 -93 125 -167 94 -128 133 -164 133 -124 0 10 -50 87
-111 172 -62 85 -112 162 -113 170 -1 9 30 32 79 58 44 24 83 44 87 44 4 0 33
-47 64 -105 41 -74 63 -105 76 -105 29 0 21 28 -36 130 -41 72 -51 98 -42 107
13 13 153 73 171 73 7 0 15 -8 18 -17 3 -10 53 -144 112 -298 60 -154 125
-329 147 -390 63 -180 69 -195 83 -195 37 0 31 24 -73 295 -69 182 -232 624
-232 630 0 2 46 18 102 35 55 18 107 34 114 37 7 3 18 -14 28 -44 15 -47 162
-640 187 -755 15 -70 22 -83 44 -74 20 7 28 -32 -96 480 -55 225 -98 410 -97
411 13 9 180 40 184 34 2 -5 13 -47 24 -95 20 -92 32 -116 51 -97 9 9 7 36 -6
108 -9 53 -15 98 -14 100 5 5 190 25 228 25 33 0 34 -1 47 -162 5 -70 8 -78
26 -78 20 0 20 5 17 123 l-4 122 75 0 75 0 1 -100 c2 -148 2 -145 24 -145 19
0 20 7 20 115 0 99 2 117 17 122 15 6 240 -14 254 -22 3 -2 0 -48 -7 -102 -7
-54 -13 -101 -14 -105 0 -5 9 -8 19 -8 20 0 34 42 46 148 8 61 10 62 124 36
62 -14 71 -19 71 -39 0 -21 -50 -250 -104 -475 -43 -182 -76 -337 -76 -358 0
-24 18 -39 30 -26 5 5 25 81 44 169 19 88 51 228 71 310 20 83 48 202 62 265
14 63 27 116 28 118 3 4 219 -61 228 -68 9 -8 -55 -200 -212 -638 -50 -140
-91 -258 -91 -263 0 -16 38 -9 45 9 27 71 194 531 246 679 35 101 69 183 74
183 6 0 47 -14 92 -32 55 -22 83 -38 83 -49 0 -8 -20 -57 -45 -108 -48 -99
-54 -121 -30 -121 9 0 36 41 67 105 29 58 57 105 63 105 21 0 170 -89 167
-100 -1 -6 -47 -78 -102 -161 -55 -82 -100 -156 -100 -164 0 -13 -21 -15 -131
-13 -119 2 -133 0 -145 -17 -20 -27 -17 -78 7 -109 20 -26 21 -26 156 -26
l135 0 -14 -22 c-11 -16 -30 -26 -64 -31 -62 -11 -78 -19 -82 -44 -2 -15 -21
-24 -97 -43 -113 -29 -114 -30 -59 -153 26 -57 37 -99 39 -137 l2 -55 -918 3
-918 2 -11 34 c-6 18 -21 38 -34 44 -16 7 -35 39 -64 110 -47 113 -50 128 -24
136 10 4 44 21 75 40 46 28 68 34 126 38 61 3 75 8 98 30 34 34 36 84 4 110
-21 17 -49 18 -345 21 -414 3 -474 1 -492 -13 -44 -38 24 -140 94 -140 10 0
41 -21 68 -46 52 -48 106 -77 165 -88 34 -6 37 -11 93 -130 48 -103 56 -127
47 -144 -14 -27 -1 -63 35 -91 27 -22 27 -22 10 -57 -21 -45 -166 -259 -175
-258 -3 0 -40 16 -81 36 -178 83 -326 116 -565 124 -195 7 -250 -1 -224 -32 7
-9 33 -30 58 -47 l45 -31 -105 -22 c-180 -39 -339 -106 -489 -207 -99 -67
-266 -230 -330 -323 -158 -229 -238 -530 -210 -790 37 -344 187 -662 426 -901
l102 -103 -389 0 c-263 0 -389 -3 -389 -10 0 -35 348 -634 416 -717 63 -77
161 -79 211 -4 37 55 31 85 -48 217 -102 172 -189 329 -189 342 0 8 21 12 58
12 l57 0 90 -152 c104 -176 161 -259 267 -384 86 -102 307 -321 418 -415 473
-402 1002 -648 1620 -753 460 -79 971 -47 1405 85 448 137 875 361 1184 623
117 99 330 313 435 437 95 112 254 345 326 477 l45 82 58 0 c37 0 57 -4 57
-12 0 -14 -69 -142 -166 -308 -81 -139 -94 -182 -70 -228 27 -53 64 -75 119
-69 77 7 101 35 262 307 130 217 255 446 255 464 0 3 -175 6 -390 6 -214 0
-390 3 -390 8 0 4 19 21 42 37 98 72 255 282 332 446 162 342 187 687 74 1007
-69 197 -150 326 -295 469 -193 191 -428 312 -699 360 l-93 17 45 48 c25 26
42 53 39 58 -8 13 -266 13 -365 0 -107 -14 -223 -46 -315 -86 -44 -19 -86 -38
-92 -41 -7 -3 -13 1 -13 9 0 8 -13 33 -30 56 -16 23 -40 67 -54 99 -84 198
-85 202 -79 238 5 31 1 39 -34 72 -42 40 -69 93 -60 116 3 8 26 17 52 20 57 8
153 64 193 113 28 34 43 39 87 32 16 -2 19 2 17 22 -4 21 -2 22 12 11 19 -16
22 -101 4 -134 -24 -47 -85 -111 -140 -148 -68 -46 -81 -77 -51 -117 42 -56
106 -36 211 67 96 93 124 145 130 236 6 89 -14 155 -64 214 l-36 41 102 108
c56 59 105 107 110 107 12 0 180 -134 180 -144 0 -5 -46 -58 -102 -116 -111
-115 -128 -139 -111 -156 8 -8 46 24 135 115 l123 126 70 -66 70 -65 -55 -52
c-31 -29 -110 -97 -175 -152 -286 -237 -366 -315 -326 -315 11 0 126 91 341
270 96 80 192 158 213 174 l38 29 62 -61 c49 -49 65 -60 75 -50 7 7 12 18 12
26 0 18 -316 334 -410 409 -105 83 -315 230 -403 280 -493 283 -1025 414
-1550 382z m1625 -500 c71 -42 138 -91 138 -100 0 -5 -44 -58 -97 -119 -70
-81 -101 -109 -112 -104 -59 25 -93 33 -139 34 -30 0 -52 4 -50 9 3 9 202 310
205 311 1 0 26 -14 55 -31z m-122 -361 c90 -38 140 -112 140 -206 0 -101 -48
-181 -158 -262 -37 -27 -70 -50 -74 -50 -17 0 -7 29 12 35 32 10 156 136 180
184 49 97 6 211 -98 259 -53 25 -68 27 -234 30 -151 4 -178 7 -178 20 0 13 24
14 188 10 133 -4 197 -10 222 -20z m-2143 -71 c-3 -9 -85 -13 -339 -15 -315
-2 -398 3 -385 25 3 5 168 7 367 5 280 -2 361 -5 357 -15z m2092 -16 c11 -7 9
-11 -10 -21 -12 -7 -43 -31 -68 -54 -25 -23 -58 -50 -73 -59 -26 -16 -28 -16
-38 2 -9 17 -6 20 22 26 20 5 51 27 83 61 52 55 61 60 84 45z m-2599 -82 c45
-13 126 -13 200 2 82 16 94 7 23 -19 -112 -41 -199 -38 -255 8 -26 22 -18 25
32 9z m2358 -81 c-2 -7 -25 -20 -51 -28 -55 -18 -57 -24 -22 -116 29 -78 29
-74 12 -74 -11 0 -69 124 -79 169 -2 9 20 22 62 36 78 28 83 29 78 13z m-2164
-66 c21 -42 76 -171 76 -179 0 -2 -6 -3 -13 -3 -12 0 -90 153 -102 203 -11 44
12 32 39 -21z m2176 -192 c0 -10 -52 -40 -70 -40 -21 0 -9 17 23 33 38 19 47
20 47 7z m-2050 -27 c-1 -10 -71 -46 -77 -40 -2 3 8 14 23 26 27 21 54 28 54
14z m2087 -129 c56 -130 73 -177 67 -186 -8 -12 -34 -10 -34 3 0 6 -23 65 -50
130 -47 111 -54 145 -27 136 6 -2 26 -39 44 -83z m-1931 -289 c207 -465 381
-865 411 -944 40 -106 21 -103 -26 4 -136 310 -238 543 -359 815 -152 342
-202 460 -202 473 0 37 41 -44 176 -348z m1792 317 c3 -10 -186 -12 -939 -10
-745 2 -943 6 -947 16 -3 10 186 12 939 10 745 -2 943 -6 947 -16z m39 -98 c3
-8 1 -25 -5 -37 -5 -12 -97 -126 -203 -254 -107 -127 -247 -297 -313 -377 -65
-80 -127 -156 -138 -168 -27 -30 -316 -381 -348 -422 -76 -98 -70 -93 -85 -72
-8 10 -19 15 -25 11 -7 -4 -17 -1 -22 6 -7 11 -11 11 -15 2 -8 -21 -33 -15
-33 7 0 11 -7 20 -16 20 -8 0 -12 -4 -9 -10 10 -16 -21 -12 -35 5 -17 21 -41
19 -34 -2 8 -26 -32 24 -55 67 -10 19 -47 103 -81 185 -34 83 -96 227 -137
320 -42 94 -100 226 -130 295 -30 69 -82 185 -114 258 -32 73 -62 144 -65 157
l-6 25 931 0 c836 0 932 -2 938 -16z m-2138 -202 c-56 -86 -220 -335 -364
-552 -144 -217 -276 -418 -293 -445 -41 -66 -77 -100 -130 -120 -67 -27 -93
-106 -57 -175 22 -42 43 -50 137 -50 72 0 91 -4 148 -31 36 -17 117 -49 180
-70 63 -21 116 -43 118 -49 2 -6 8 -7 14 -4 6 4 14 0 19 -7 6 -10 9 -11 9 -1
0 6 5 12 10 12 6 0 10 -9 10 -20 0 -17 -3 -19 -19 -10 -11 5 -29 10 -40 10
-10 0 -21 4 -23 10 -1 5 -16 11 -33 12 -16 1 -32 5 -35 8 -14 15 -80 38 -85
30 -3 -6 -12 -10 -18 -10 -8 0 -7 3 2 9 9 6 -2 14 -40 29 -163 60 -179 64
-191 54 -14 -11 -43 -15 -95 -13 -61 2 -133 88 -133 158 1 50 36 110 81 138
37 24 43 25 51 11 7 -13 12 -14 29 -3 21 12 108 139 200 290 45 74 122 191
239 362 23 33 76 114 119 180 43 66 109 167 147 224 38 58 85 128 104 158 22
34 36 48 38 38 2 -9 -43 -86 -99 -173z m2201 125 c0 -7 -17 -33 -37 -57 -21
-24 -67 -81 -103 -126 -36 -46 -139 -172 -230 -280 -91 -109 -221 -265 -290
-348 -264 -320 -317 -383 -372 -443 -32 -34 -58 -57 -58 -50 0 19 10 32 328
415 57 68 137 166 178 218 41 51 102 126 137 167 34 41 109 132 167 203 58 70
132 158 165 197 33 38 69 79 80 92 23 27 35 31 35 12z m-2040 -47 c0 -5 43
-107 96 -227 133 -302 196 -459 147 -368 -56 103 -235 300 -362 395 l-33 25
52 80 c29 44 59 88 67 97 15 17 33 16 33 -2z m-685 -25 c45 -8 119 -28 165
-44 91 -30 210 -82 210 -91 0 -3 -7 -14 -15 -24 -15 -20 -16 -20 -62 3 -138
67 -248 96 -418 111 -86 7 -131 16 -162 32 -24 12 -43 26 -43 31 0 13 222 0
325 -18z m3595 15 c0 -4 -17 -19 -37 -33 -32 -21 -54 -26 -142 -32 -123 -8
-226 -33 -336 -81 -44 -20 -85 -38 -92 -41 -7 -3 -15 6 -19 22 -5 19 -1 30 12
40 26 20 185 81 264 101 101 26 350 43 350 24z m-710 -28 c0 -11 -78 -47 -86
-40 -2 3 12 15 33 26 43 23 53 26 53 14z m-150 -79 c0 -16 7 -27 20 -30 20 -5
28 -23 11 -23 -18 0 -168 -129 -245 -210 -143 -153 -250 -338 -321 -555 -49
-149 -60 -229 -59 -415 0 -178 15 -287 60 -445 30 -108 106 -273 129 -281 9
-4 39 4 66 16 27 13 50 22 52 19 137 -172 203 -243 291 -309 l59 -45 -368 -3
c-233 -1 -373 -6 -381 -12 -13 -12 -8 -46 10 -57 6 -4 101 -13 211 -20 110 -6
245 -15 300 -19 l100 -8 -65 -11 c-48 -7 -66 -15 -68 -27 -5 -24 20 -26 338
-33 320 -6 400 -13 400 -30 0 -17 -33 -25 -112 -25 -74 0 -123 -14 -112 -31 5
-9 57 -10 188 -5 l181 6 -78 -75 c-93 -88 -262 -218 -402 -306 -355 -223 -833
-359 -1266 -359 -544 0 -1066 175 -1504 505 -132 100 -261 210 -269 231 -5 13
15 14 162 9 106 -4 172 -3 182 4 20 13 10 21 -36 27 -66 9 -84 14 -84 24 0 15
72 20 390 28 276 6 305 9 308 24 4 21 -5 23 -178 39 -202 19 -132 27 308 36
409 9 406 8 400 58 -3 20 -12 20 -410 23 -225 1 -408 6 -408 10 1 4 21 23 46
42 121 93 251 260 335 430 53 107 57 112 78 100 10 -5 31 -11 47 -14 16 -2 29
-5 29 -6 0 -1 30 -9 67 -19 44 -11 71 -14 78 -7 6 6 11 4 15 -6 4 -10 15 -13
35 -10 19 3 30 0 30 -7 0 -8 5 -9 19 -1 11 6 22 6 25 1 5 -7 71 -7 71 0 0 2
40 9 65 11 8 0 17 5 20 9 3 5 17 10 30 12 13 2 26 9 28 15 2 7 9 12 16 12 19
0 106 79 106 96 0 18 20 17 144 -4 99 -17 100 -18 108 -49 7 -27 15 -34 50
-44 45 -12 104 -7 122 11 26 26 23 233 -5 251 -39 25 -169 -3 -169 -36 0 -18
-19 -16 -117 11 -55 15 -62 26 -63 84 0 63 -7 90 -29 109 -19 17 -21 23 -11
35 6 9 9 20 5 25 -10 17 11 47 133 196 64 77 141 171 171 209 31 37 101 122
156 188 55 67 132 160 170 208 175 218 380 458 387 454 4 -3 8 -17 8 -31z
m160 -13 c0 -17 107 -253 220 -487 164 -338 279 -521 371 -588 44 -32 38 -45
-9 -21 -52 27 -134 137 -257 344 -68 115 -326 660 -350 740 -5 16 -2 22 9 22
9 0 16 -5 16 -10z m-3192 -32 c7 -7 12 -18 12 -25 0 -21 -38 -15 -54 9 l-16
22 0 -22 c0 -17 -6 -22 -24 -22 -19 0 -23 4 -19 19 7 28 79 41 101 19z m80
-11 c2 -11 -3 -17 -17 -17 -23 0 -35 15 -26 31 10 15 39 6 43 -14z m3873 13
c30 -16 24 -40 -10 -40 -33 0 -46 13 -37 35 6 18 20 19 47 5z m-4073 -28 c3
-18 -1 -22 -21 -22 -26 0 -45 35 -23 44 22 9 41 0 44 -22z m4002 13 c0 -16
-45 -21 -54 -6 -8 12 4 21 31 21 14 0 23 -6 23 -15z m140 -7 c1 -21 2 -21 11
-5 6 10 22 17 41 17 l31 0 -22 -24 c-20 -21 -27 -23 -59 -14 -45 12 -44 11
-36 32 9 24 34 20 34 -6z m-4210 -17 c0 -26 -31 -36 -47 -15 -16 22 -8 34 23
34 17 0 24 -6 24 -19z m4361 -4 c4 -5 9 -5 13 2 4 6 11 9 16 6 5 -3 0 -15 -11
-26 -14 -14 -27 -18 -47 -13 -53 11 -54 12 -42 34 8 16 17 19 38 14 15 -4 30
-11 33 -17z m-4421 -6 c15 -29 13 -34 -15 -29 -18 4 -25 1 -25 -10 0 -10 -8
-13 -27 -9 -18 3 -32 0 -40 -11 -12 -16 -14 -15 -28 2 -8 11 -15 23 -15 27 0
14 42 21 53 10 13 -13 28 -14 25 -2 -3 11 32 40 49 41 7 0 17 -9 23 -19z
m3379 -50 c0 -3 -38 -35 -83 -70 -131 -100 -191 -164 -290 -308 -154 -225
-226 -456 -226 -722 0 -197 37 -385 107 -549 27 -62 33 -86 25 -94 -14 -14
-11 -19 -54 77 -51 114 -55 126 -85 260 -23 106 -27 142 -27 305 0 142 4 204
17 267 41 188 120 376 219 522 58 84 223 255 308 319 55 40 55 40 73 20 9 -11
17 -23 16 -27z m1126 39 c22 -8 24 -13 15 -30 -13 -24 2 -27 24 -5 14 14 18
14 43 1 20 -11 23 -15 10 -16 -10 0 -20 -6 -23 -14 -5 -12 -16 -11 -67 9 -63
23 -85 45 -47 45 12 0 18 5 15 10 -8 13 -3 13 30 0z m-3374 -76 c140 -111 266
-270 341 -430 38 -81 110 -287 123 -354 7 -30 6 -33 -8 -22 -8 7 -18 28 -21
46 -9 47 -87 240 -130 323 -67 127 -245 328 -361 408 -58 41 -61 45 -44 76 12
23 12 23 100 -47z m-1285 29 c9 -13 9 -22 2 -30 -15 -18 -32 -16 -52 6 -17 18
-17 20 1 30 25 15 34 14 49 -6z m644 -3 c70 -11 132 -29 220 -63 70 -27 74
-31 61 -55 -11 -20 -11 -20 -58 2 -239 114 -523 113 -792 -3 -165 -71 -300
-176 -404 -316 -251 -336 -260 -770 -22 -1135 400 -616 1301 -593 1698 43 18
28 37 47 48 47 11 0 19 -3 19 -8 0 -4 -21 -43 -46 -86 -57 -98 -210 -255 -312
-320 -170 -108 -369 -166 -574 -166 -291 0 -525 97 -729 299 -145 144 -245
316 -291 497 -19 74 -22 117 -23 254 0 143 4 177 24 250 30 107 98 254 155
334 155 216 404 373 669 421 88 16 270 18 357 5z m3766 -5 c120 -21 238 -64
352 -127 257 -143 436 -393 498 -697 22 -112 15 -328 -16 -451 -41 -166 -144
-343 -273 -471 -195 -192 -423 -295 -682 -306 -148 -7 -261 7 -385 48 -174 57
-288 126 -416 254 -160 158 -259 351 -294 568 -17 106 -8 318 19 419 43 166
129 319 253 453 69 73 151 139 162 128 15 -16 2 -41 -40 -73 -67 -52 -156
-156 -218 -254 -176 -281 -192 -645 -41 -947 56 -111 106 -178 206 -276 94
-92 126 -115 223 -164 381 -194 800 -145 1125 133 327 278 439 734 275 1122
-55 129 -112 215 -209 312 -127 127 -216 183 -390 244 -232 81 -472 75 -710
-20 -62 -24 -80 -28 -86 -18 -5 7 -9 16 -9 20 0 21 211 94 307 107 110 14 254
12 349 -4z m394 -24 c0 -27 -15 -34 -40 -21 -17 9 -19 14 -9 26 17 21 49 18
49 -5z m-4870 5 c0 -2 3 -11 6 -19 6 -18 -24 -31 -40 -18 -7 6 -17 6 -26 0
-13 -8 -13 -10 -1 -18 14 -9 7 -31 -10 -31 -14 0 -39 26 -39 39 0 13 67 48 93
50 9 1 17 -1 17 -3z m4940 -31 c7 -8 4 -17 -11 -31 -20 -18 -21 -18 -35 1 -8
10 -14 15 -14 10 0 -4 -3 -6 -6 -3 -3 3 0 15 7 26 13 20 40 19 59 -3z m72 -77
c-19 -22 -32 -23 -32 -3 0 8 -9 15 -20 15 -24 0 -25 8 -4 31 16 18 18 18 44
-4 25 -20 26 -24 12 -39z m-5140 -13 c-27 -23 -27 -23 -46 -3 -13 14 -15 23
-7 31 8 8 14 8 23 -1 18 -18 30 -14 19 7 -15 27 1 36 21 11 17 -21 16 -22 -10
-45z m629 -117 c1 -90 4 -237 8 -328 4 -91 5 -169 3 -173 -2 -4 -24 25 -49 65
-24 40 -51 80 -58 88 -8 8 -19 55 -25 103 -13 107 -23 159 -50 271 -12 48 -19
93 -17 101 6 14 84 32 150 34 l37 1 1 -162z m205 150 c2 -3 -19 -128 -46 -278
-48 -259 -81 -379 -106 -387 -19 -6 -23 42 -30 367 l-7 313 92 -5 c50 -3 94
-8 97 -10z m3598 -4 c3 -9 6 -159 6 -335 0 -305 -1 -319 -19 -319 -23 0 -56
72 -76 167 -19 90 -83 431 -87 463 -3 22 2 26 32 31 73 13 138 10 144 -7z
m141 5 c60 -9 75 -15 75 -29 0 -9 -11 -71 -24 -136 -14 -66 -30 -166 -37 -224
-11 -90 -17 -111 -43 -147 -17 -22 -39 -55 -48 -73 -10 -17 -22 -28 -28 -25
-6 4 -10 121 -10 326 0 310 1 319 20 319 10 0 53 -5 95 -11z m-3625 -33 c61
-21 65 -24 62 -50 -6 -53 -96 -241 -175 -366 -77 -121 -79 -124 -73 -80 17
124 102 520 111 519 5 0 39 -10 75 -23z m2800 15 c0 -13 -67 -81 -74 -74 -11
11 -6 33 7 33 6 0 21 11 32 25 21 25 35 32 35 16z m500 -106 c46 -212 87 -420
84 -423 -5 -7 -109 141 -162 229 -71 118 -126 239 -114 251 14 14 156 57 164
50 4 -4 16 -52 28 -107z m940 89 c11 -12 11 -18 -2 -31 -14 -13 -18 -13 -31
-2 -11 10 -12 18 -3 31 13 22 20 22 36 2z m-4766 -46 c43 -150 72 -302 64
-346 -2 -16 -32 15 -135 143 -73 90 -133 168 -133 174 0 9 153 79 177 80 6 1
18 -23 27 -51z m4353 22 c118 -46 115 -37 42 -132 -35 -46 -95 -125 -134 -176
-38 -50 -74 -91 -79 -92 -12 0 -3 65 35 263 21 109 37 167 45 167 7 0 48 -14
91 -30z m-4829 11 c10 -6 6 -16 -17 -42 -30 -32 -32 -33 -48 -15 -13 13 -14
20 -6 23 7 2 9 11 6 20 -5 12 -1 14 15 8 13 -4 22 -2 22 4 0 13 10 14 28 2z
m1112 -34 c0 -14 -68 -147 -76 -147 -2 0 6 26 18 58 11 31 25 67 29 80 9 24
29 30 29 9z m333 -89 c57 -57 117 -124 135 -150 98 -143 203 -418 160 -418
-20 0 -38 21 -38 43 0 10 -18 65 -40 121 -64 163 -186 331 -319 437 -32 25
-43 40 -38 52 12 32 37 17 140 -85z m2267 71 c0 -12 -8 -23 -20 -26 -13 -4
-20 -14 -20 -30 0 -22 -2 -24 -15 -13 -17 15 -20 40 -4 40 6 0 20 11 31 25 24
30 28 31 28 4z m403 -62 c45 -99 138 -250 230 -372 37 -49 70 -101 74 -113 6
-26 -18 -59 -35 -48 -34 21 -203 322 -292 519 -45 98 -45 97 -27 97 6 0 29
-37 50 -83z m1198 67 c11 -14 11 -18 -4 -29 -20 -15 -6 -31 19 -21 8 3 23 -3
34 -14 26 -26 25 -30 -4 -30 -13 0 -42 17 -67 39 -38 34 -42 40 -30 55 17 20
35 20 52 0z m-5392 -23 c8 -14 4 -25 -19 -51 -32 -36 -60 -35 -60 1 0 17 5 20
21 16 13 -3 19 -1 16 6 -5 15 11 47 23 47 5 0 14 -8 19 -19z m5160 -88 l46
-42 -194 -188 c-106 -103 -213 -212 -237 -241 -24 -30 -44 -50 -45 -45 0 4 0
56 0 115 l0 108 73 88 c40 48 109 133 153 189 l80 101 39 -21 c22 -12 60 -41
85 -64z m-4694 -89 c77 -91 145 -173 151 -182 7 -10 14 -67 17 -127 l4 -110
-131 125 c-219 209 -346 336 -346 346 0 12 138 114 154 114 6 0 75 -75 151
-166z m965 56 c0 -4 -51 -60 -112 -126 -62 -65 -137 -146 -165 -179 -29 -32
-53 -55 -53 -51 0 23 36 128 62 179 16 32 60 105 99 162 l71 104 49 -42 c27
-23 49 -44 49 -47z m2280 56 c0 -8 -7 -21 -15 -30 -8 -8 -15 -19 -15 -25 0
-16 -20 -13 -26 4 -3 8 1 22 10 30 9 9 16 21 16 26 0 5 7 9 15 9 8 0 15 -6 15
-14z m380 -176 l91 -185 -74 80 c-40 44 -102 112 -136 150 l-61 70 42 37 c23
20 43 36 44 35 2 -1 44 -85 94 -187z m-4166 152 c6 -11 -16 -54 -31 -59 -6 -2
-17 6 -24 18 -10 19 -9 25 7 36 20 15 40 17 48 5z m5561 -15 c0 -10 6 -22 14
-26 15 -10 7 -31 -12 -31 -15 0 -49 59 -41 71 10 16 39 5 39 -14z m-1836 -55
c-3 -7 -11 -5 -23 3 -10 8 -15 19 -11 25 9 14 40 -12 34 -28z m-3769 -12 c0
-6 -4 -10 -9 -10 -5 0 -12 -12 -15 -26 -7 -28 -23 -28 -40 0 -9 13 -7 20 7 30
9 7 17 18 17 25 0 9 5 9 20 1 11 -6 20 -15 20 -20z m1651 -52 c35 -43 49 -22
-112 -168 -220 -201 -224 -204 -330 -224 -64 -13 -69 -12 -69 4 0 19 103 133
304 337 l130 133 24 -23 c13 -12 37 -39 53 -59z m3752 14 l47 -60 -148 -141
c-138 -133 -154 -145 -258 -196 -61 -30 -125 -58 -141 -61 -44 -9 -51 19 -16
69 32 45 454 458 463 452 3 -2 27 -31 53 -63z m-4965 -109 c272 -258 302 -288
302 -306 0 -35 -48 -31 -152 13 -117 50 -172 90 -327 237 l-113 108 48 57 c27
31 53 57 57 57 5 1 88 -74 185 -166z m3724 10 c210 -230 300 -344 285 -360 -3
-3 -18 4 -34 15 -15 10 -46 25 -68 32 -22 6 -57 23 -77 36 -41 26 -351 300
-356 315 -4 11 85 119 98 119 4 0 73 -71 152 -157z m-414 124 c2 -12 -1 -15
-12 -11 -12 5 -15 2 -10 -12 5 -14 4 -16 -4 -9 -14 13 -4 57 12 52 6 -2 12
-11 14 -20z m1914 3 c-1 -7 2 -18 8 -25 6 -7 8 -20 4 -29 -4 -11 -1 -16 12
-16 25 0 50 -50 31 -62 -21 -13 -26 -9 -42 30 -9 20 -28 49 -42 65 -26 26 -26
27 -7 42 21 16 40 14 36 -5z m-1957 -69 c-3 -12 -11 -21 -16 -21 -16 0 -22 29
-9 46 17 20 34 3 25 -25z m-3765 2 c0 -9 -11 -35 -24 -57 -13 -23 -26 -53 -30
-68 -8 -35 -36 -37 -36 -4 0 37 10 56 30 56 12 0 17 6 13 18 -6 26 14 72 32
72 8 0 15 -7 15 -17z m3735 -44 c4 -5 0 -18 -9 -28 -9 -10 -16 -27 -16 -39 0
-25 -11 -34 -28 -23 -9 6 -7 19 8 54 21 47 33 57 45 36z m-3275 -240 c0 -4
-28 2 -62 13 -35 11 -110 32 -168 47 -121 33 -123 35 -68 126 l31 53 134 -116
c73 -64 133 -119 133 -123z m1320 209 c29 -40 73 -128 66 -135 -18 -18 -393
-119 -403 -109 -3 2 14 22 38 43 92 83 264 232 270 232 3 1 16 -14 29 -31z
m2439 -206 c53 -49 54 -52 26 -46 -105 23 -385 110 -385 121 0 8 54 109 72
136 l19 27 107 -92 c58 -51 131 -117 161 -146z m1362 139 c11 -24 18 -45 17
-46 -2 -1 -32 -10 -68 -19 -36 -10 -107 -31 -158 -48 -52 -16 -96 -28 -98 -25
-2 2 40 44 93 93 54 49 109 101 123 116 l25 27 23 -27 c13 -15 32 -47 43 -71z
m216 45 c-3 -8 1 -17 9 -20 20 -8 18 -26 -3 -26 -18 0 -46 44 -35 55 12 11 34
4 29 -9z m-3471 -158 c44 -110 52 -152 20 -117 -10 11 -49 124 -93 268 -13 44
31 -47 73 -151z m-1065 59 c-38 -102 -62 -141 -89 -145 -22 -3 -23 -3 -8 32
17 40 117 199 122 193 2 -2 -9 -38 -25 -80z m2423 35 c8 -13 -18 -82 -31 -82
-15 0 -17 29 -3 64 9 26 24 33 34 18z m2154 -20 c2 -13 -2 -30 -8 -38 -10 -11
-9 -14 9 -14 26 0 27 -15 4 -29 -16 -9 -16 -10 -2 -11 21 0 33 -30 19 -44 -15
-15 -12 -26 5 -26 12 0 15 -9 11 -40 -3 -22 -1 -42 5 -45 14 -9 11 -22 -7 -29
-13 -5 -15 -2 -11 14 3 11 2 20 -3 20 -4 0 -10 24 -14 54 -3 30 -17 87 -31
127 -13 40 -22 76 -19 81 11 17 39 3 42 -20z m-5920 -4 c-3 -13 -11 -52 -18
-88 -17 -88 -28 -116 -42 -102 -13 13 -2 65 12 57 6 -3 10 -1 10 4 0 6 -7 11
-15 11 -8 0 -15 7 -15 16 0 10 6 14 14 11 11 -4 13 3 11 31 -2 38 17 82 36 82
6 0 9 -10 7 -22z m961 -39 c23 -34 41 -67 41 -73 0 -7 -18 -22 -39 -34 -34
-19 -40 -20 -45 -6 -7 17 -8 174 -2 174 2 0 23 -28 45 -61z m4011 -29 c0 -55
-4 -82 -12 -85 -21 -8 -73 10 -76 26 -3 16 67 139 80 139 4 0 8 -36 8 -80z
m756 -70 c7 -30 12 -55 10 -57 -12 -12 -646 -126 -655 -117 -3 2 5 12 18 20
12 9 55 42 95 74 40 31 82 63 95 69 12 7 104 37 204 67 100 31 184 58 187 61
7 7 31 -53 46 -117z m-3561 6 c8 -32 11 -55 7 -52 -6 7 -41 134 -41 151 0 18
20 -39 34 -99z m-1872 73 c266 -66 298 -79 377 -142 41 -33 90 -69 108 -80 18
-11 31 -22 28 -25 -13 -12 -437 48 -597 84 -75 17 -77 19 -58 89 17 67 31 95
46 95 8 0 51 -9 96 -21z m1663 -32 c7 -20 14 -50 16 -68 l3 -31 -75 -4 c-125
-7 -513 -34 -547 -39 -17 -2 -36 2 -42 8 -7 10 29 22 152 51 248 58 398 97
432 112 40 17 46 14 61 -29z m2146 -11 c84 -24 185 -51 225 -60 56 -14 82 -27
122 -61 27 -23 62 -52 77 -64 15 -12 24 -24 21 -27 -12 -12 -641 67 -656 82
-6 5 16 115 29 150 5 13 14 24 19 24 5 0 79 -20 163 -44z m-374 -2 c1 -10 -2
-26 -8 -34 -14 -22 -30 0 -23 33 6 31 27 32 31 1z m-2738 -69 c-13 -14 -28
-25 -34 -25 -11 1 40 50 51 50 4 0 -4 -11 -17 -25z m2720 0 c0 -8 -4 -15 -10
-15 -5 0 -10 7 -10 15 0 8 5 15 10 15 6 0 10 -7 10 -15z m1166 -22 c-8 -9 -46
18 -40 28 4 6 13 4 25 -7 11 -9 17 -19 15 -21z m-4111 -15 c58 -23 75 -35 75
-54 0 -26 -38 -14 -99 31 -60 44 -77 64 -43 50 9 -4 40 -16 67 -27z m250 22
c-3 -5 -12 -10 -18 -10 -7 0 -6 4 3 10 19 12 23 12 15 0z m222 -39 c-5 -2 -13
3 -18 10 -15 24 -10 30 9 12 10 -10 14 -20 9 -22z m3703 28 c0 -6 11 -25 25
-43 37 -49 30 -57 -10 -11 -34 40 -44 65 -25 65 6 0 10 -5 10 -11z m-5006 -5
c17 -7 22 -44 6 -44 -9 0 -30 31 -30 44 0 8 5 7 24 0z m3768 -49 c-3 -21 -10
-35 -18 -35 -16 0 -19 16 -3 25 6 4 7 20 3 38 -6 27 -4 30 8 20 9 -8 13 -25
10 -48z m1483 47 c-49 -42 -118 -83 -132 -78 -15 6 -15 8 0 23 9 9 40 27 69
39 57 24 78 29 63 16z m-4235 -6 c0 -3 -4 -8 -10 -11 -5 -3 -10 -1 -10 4 0 6
5 11 10 11 6 0 10 -2 10 -4z m3585 -19 c25 -14 41 -31 43 -46 3 -19 1 -21 -15
-12 -10 6 -36 26 -58 45 -46 40 -30 47 30 13z m350 -3 c50 -23 78 -67 82 -128
7 -96 -46 -157 -144 -164 -48 -3 -64 0 -92 20 -53 36 -96 141 -72 177 15 23
38 -3 46 -52 5 -28 19 -53 42 -76 30 -30 38 -33 75 -28 61 8 101 52 101 111 0
57 -26 88 -99 121 -28 13 -54 27 -57 31 -9 15 81 6 118 -12z m-3975 6 c0 -5
-4 -10 -10 -10 -5 0 -10 5 -10 10 0 6 5 10 10 10 6 0 10 -4 10 -10z m1718 -9
c3 -9 0 -11 -8 -6 -13 8 -67 8 -142 1 -21 -2 -38 -1 -38 3 0 7 -91 4 -98 -4
-2 -2 -14 0 -27 5 -13 5 -26 6 -29 2 -4 -3 -72 -7 -151 -8 -107 -2 -145 0
-145 9 0 19 632 17 638 -2z m3120 -79 l3 -92 -178 -1 c-98 -1 -225 -4 -283 -8
-159 -11 -253 23 -210 74 7 8 25 15 41 15 37 0 411 65 514 89 44 10 87 18 95
17 12 -1 16 -20 18 -94z m-3768 78 c0 -6 -22 -9 -58 -8 -31 1 -62 0 -67 -3
-31 -17 -110 -7 -91 12 10 10 216 9 216 -1z m-1675 -25 c77 -14 214 -35 305
-46 220 -27 210 -24 203 -62 -3 -18 -11 -36 -17 -40 -6 -5 -87 -6 -181 -3 -93
3 -241 6 -327 6 l-158 0 0 85 c0 74 2 85 18 85 9 0 80 -11 157 -25z m1445 14
c0 -6 -12 -10 -27 -9 -16 1 -30 1 -33 0 -19 -6 -100 -6 -94 0 19 18 154 26
154 9z m-1804 -26 c-3 -8 -6 -19 -6 -25 0 -6 -6 -6 -15 2 -23 19 -19 49 6 43
12 -4 18 -11 15 -20z m1534 16 c0 -8 4 -8 14 0 10 9 15 8 19 -3 4 -11 -1 -14
-20 -13 -25 2 -47 27 -24 27 6 0 11 -5 11 -11z m70 2 c0 -17 -18 -21 -24 -6
-3 9 0 15 9 15 8 0 15 -4 15 -9z m30 -1 c0 -5 -4 -10 -10 -10 -5 0 -10 5 -10
10 0 6 5 10 10 10 6 0 10 -4 10 -10z m-710 -37 c-11 -17 -11 -17 -6 0 3 10 6
24 7 30 0 9 2 9 5 0 3 -7 0 -20 -6 -30z m529 17 c-20 -11 -251 -30 -266 -22
-8 5 -9 12 -3 22 7 12 13 13 28 4 13 -9 46 -9 127 0 108 12 141 11 114 -4z
m51 10 c0 -5 -7 -10 -15 -10 -8 0 -15 5 -15 10 0 6 7 10 15 10 8 0 15 -4 15
-10z m2680 -25 c96 -13 229 -29 295 -35 123 -12 145 -20 145 -50 0 -30 -94
-41 -380 -44 -146 -2 -275 -6 -287 -10 -29 -11 -37 17 -28 106 l7 70 37 -6
c20 -4 115 -17 211 -31z m-1635 4 c6 -6 5 -16 -3 -29 -16 -26 -15 -30 3 -30
19 0 19 -14 0 -30 -13 -11 -14 -10 -10 2 3 8 -2 21 -11 29 -14 11 -18 11 -30
-6 -9 -12 -11 -21 -4 -23 17 -6 11 -19 -11 -25 -11 -3 -23 -15 -26 -26 -3 -12
-10 -21 -15 -21 -5 0 -7 -4 -4 -9 10 -16 -5 -41 -25 -41 -17 0 -19 9 -19 109
l0 110 33 3 c46 5 110 -2 122 -13z m2535 -7 c0 -4 -9 -8 -20 -9 -16 -1 -17 1
-7 12 12 13 27 11 27 -3z m-3020 -62 l0 -70 -29 0 c-48 0 -536 67 -620 86 -17
4 -21 8 -13 16 12 12 332 35 530 37 l132 1 0 -70z m98 -13 c3 -71 1 -78 -15
-75 -15 3 -18 16 -21 81 -3 71 -1 78 15 75 15 -3 18 -16 21 -81z m613 73 c23
-13 26 -42 4 -34 -8 4 -15 12 -15 19 0 8 -8 16 -17 18 -10 3 -12 5 -5 6 7 0
22 -4 33 -9z m3249 2 c0 -4 -6 -14 -12 -21 -10 -11 -10 -14 0 -18 16 -6 16
-33 -1 -33 -8 0 -14 15 -15 40 -2 30 1 40 13 40 8 0 15 -4 15 -8z m-3190 -28
c0 -8 -4 -12 -10 -9 -5 3 -10 10 -10 16 0 5 5 9 10 9 6 0 10 -7 10 -16z m1840
1 c0 -8 -4 -15 -9 -15 -13 0 -22 16 -14 24 11 11 23 6 23 -9z m-1790 -11 c0
-17 -22 -14 -28 4 -2 7 3 12 12 12 9 0 16 -7 16 -16z m2210 6 c0 -5 -4 -10
-10 -10 -5 0 -10 5 -10 10 0 6 5 10 10 10 6 0 10 -4 10 -10z m-5102 -17 c-4
-22 -22 -20 -26 1 -2 10 3 16 13 16 10 0 15 -7 13 -17z m927 -5 c-1 -12 -8
-24 -15 -26 -9 -3 -11 1 -7 12 4 10 7 22 7 27 0 5 4 9 8 9 5 0 8 -10 7 -22z
m209 6 c5 -14 4 -15 -8 -5 -12 10 -16 8 -21 -8 -10 -32 4 -45 26 -25 22 20 25
7 6 -20 -19 -25 -50 -16 -62 18 -8 23 -6 30 10 42 25 18 41 18 49 -2z m2603
-16 c-3 -8 -6 -5 -6 6 -1 11 2 17 5 13 3 -3 4 -12 1 -19z m-1027 -68 c13 -40
19 -45 53 -51 20 -3 37 -5 37 -4 0 1 -7 23 -16 49 -14 40 -14 50 -3 56 17 11
33 1 20 -13 -12 -15 13 -52 28 -42 15 8 14 38 -1 53 -8 8 -8 12 -1 12 6 0 16
-7 23 -15 7 -8 20 -15 28 -15 14 0 14 -2 1 -12 -8 -7 -27 -27 -43 -45 l-28
-32 21 -34 c13 -21 21 -51 21 -79 l0 -44 78 -18 c256 -59 332 -79 332 -88 0
-15 -69 -3 -375 67 -47 10 -72 11 -112 2 -63 -13 -92 -1 -118 47 -15 28 -16
38 -6 69 7 20 24 45 37 56 25 20 25 20 10 72 -16 53 -21 101 -8 69 3 -8 13
-35 22 -60z m227 64 c-3 -3 -12 -4 -19 -1 -8 3 -5 6 6 6 11 1 17 -2 13 -5z
m1959 -18 c7 -31 -1 -46 -26 -46 -25 0 -32 13 -24 45 8 33 41 34 50 1z m-3461
-21 c88 -13 239 -33 335 -45 226 -26 472 -68 485 -82 12 -12 -24 -9 -265 27
-91 14 -237 34 -325 45 -292 37 -436 58 -442 63 -11 12 10 28 31 23 11 -4 93
-18 181 -31z m3235 25 c0 -5 -4 -10 -10 -10 -5 0 -10 5 -10 10 0 6 5 10 10 10
6 0 10 -4 10 -10z m444 -6 c3 -8 2 -12 -4 -9 -6 3 -10 10 -10 16 0 14 7 11 14
-7z m-2080 -9 c-4 -8 -11 -12 -16 -9 -6 4 -5 10 3 15 19 12 19 11 13 -6z
m2050 0 c3 -8 1 -15 -3 -15 -5 0 -11 7 -15 15 -3 8 -1 15 3 15 5 0 11 -7 15
-15z m-5097 -17 c-3 -8 -6 -5 -6 6 -1 11 2 17 5 13 3 -3 4 -12 1 -19z m3031
-58 c31 -51 47 -160 25 -160 -7 0 -13 12 -14 28 -1 72 -33 171 -59 187 -6 3
-10 12 -10 18 1 15 23 -13 58 -73z m3002 50 c0 -11 -4 -20 -10 -20 -5 0 -10 9
-10 20 0 11 5 20 10 20 6 0 10 -9 10 -20z m-3511 -39 c-11 -23 -25 -43 -30
-46 -4 -3 -2 7 6 22 8 15 15 33 15 39 0 11 22 36 27 30 2 -2 -6 -22 -18 -45z
m-1581 13 c0 -18 -3 -22 -9 -13 -11 18 -11 39 0 39 5 0 9 -12 9 -26z m1659 -4
c-5 -20 -2 -30 6 -30 6 0 21 -8 32 -16 19 -15 17 -16 -28 -11 -26 2 -51 7 -54
11 -8 8 29 76 41 76 4 0 6 -13 3 -30z m2099 -7 c-4 -4 -11 -1 -16 7 -16 25
-11 35 7 17 9 -9 13 -20 9 -24z m513 26 c17 -6 31 -15 31 -20 0 -13 -74 -11
-88 3 -28 28 0 37 57 17z m-4403 -10 c8 -13 -550 -198 -562 -187 -7 8 -30 99
-39 156 l-7 44 302 -4 c166 -1 304 -6 306 -9z m78 -14 c-4 -15 -1 -32 6 -40 7
-9 11 -17 9 -19 -103 -79 -525 -326 -558 -326 -14 0 -94 167 -86 179 3 6 43
21 88 35 45 14 163 52 263 85 99 33 197 62 217 66 33 7 53 25 26 25 -5 0 -7 5
-4 10 3 6 15 10 26 10 16 0 18 -5 13 -25z m3756 10 c0 -12 -13 -15 -60 -15
-94 0 -74 25 23 29 27 1 37 -3 37 -14z m1180 -7 c0 -29 -28 -159 -35 -166 -3
-3 -44 7 -93 22 -228 72 -370 120 -397 135 l-30 16 75 6 c41 3 166 6 278 7
l202 2 0 -22z m-1340 2 c0 -5 -5 -10 -11 -10 -6 0 -68 -22 -138 -49 -69 -27
-174 -67 -233 -88 l-107 -40 -15 46 c-8 25 -17 65 -20 88 -6 38 -4 43 16 48
69 15 508 20 508 5z m1535 -67 c-3 -24 -9 -43 -11 -40 -3 3 -2 29 2 58 4 30 9
48 12 41 2 -7 1 -34 -3 -59z m-963 26 c-4 -26 -6 -29 -14 -15 -6 11 -6 22 2
32 17 19 17 19 12 -17z m116 -19 c32 -51 30 -66 -3 -30 -10 11 -23 20 -29 20
-27 1 -38 17 -27 39 7 11 15 21 20 21 4 0 22 -22 39 -50z m-496 25 c13 -18 8
-26 -13 -23 -14 2 -36 -10 -62 -34 -22 -21 -49 -41 -61 -44 -11 -4 -92 -47
-181 -97 -88 -49 -186 -104 -218 -121 l-57 -31 -20 25 c-25 32 -70 143 -62
152 4 3 88 36 187 73 326 121 302 114 395 112 47 -1 88 -6 92 -12z m680 -21
c40 -14 153 -51 250 -82 202 -64 188 -49 137 -160 -25 -56 -31 -63 -50 -57
-61 20 -430 207 -461 234 -20 17 -41 45 -47 61 l-10 30 54 0 c32 0 83 -10 127
-26z m-3802 -10 c41 -8 152 -23 245 -35 277 -33 255 -28 255 -56 0 -16 -5 -23
-12 -20 -7 2 -58 14 -113 26 -55 12 -142 32 -193 43 -51 11 -95 18 -98 15 -9
-9 86 -36 236 -67 178 -37 170 -34 170 -64 0 -31 -15 -36 -65 -20 -22 6 -101
29 -175 49 -229 64 -420 132 -420 151 0 6 68 -2 170 -22z m1430 -5 c0 -11 -7
-19 -17 -19 -9 0 -27 -9 -39 -21 -12 -12 -29 -19 -36 -16 -8 4 -5 8 9 12 13 4
21 11 18 15 -3 4 4 19 16 33 22 29 49 26 49 -4z m1790 -15 l25 -28 -31 22
c-17 11 -37 29 -45 38 -13 16 -12 16 6 7 11 -6 31 -24 45 -39z m-3785 24 c4
-3 2 -9 -3 -12 -5 -3 -15 1 -21 8 -10 11 -9 14 3 12 9 -1 18 -5 21 -8z m4045
-8 c0 -5 -10 -10 -22 -10 -19 0 -20 2 -8 10 19 13 30 13 30 0z m-292 -84 c-11
-23 -82 -119 -110 -150 -9 -10 -77 -96 -150 -192 -73 -95 -139 -174 -146 -174
-8 0 -39 24 -70 54 l-56 54 111 118 c61 66 143 157 183 204 77 91 107 120 155
151 l30 19 32 -32 c27 -26 30 -34 21 -52z m-3803 53 c0 -8 -104 -117 -232
-242 l-232 -229 -33 38 c-42 48 -87 107 -88 115 0 4 49 32 109 64 61 31 188
106 283 166 95 59 178 107 183 105 6 -1 10 -9 10 -17z m4211 -10 c65 -37 106
-77 285 -281 l139 -157 -56 -56 c-31 -30 -62 -55 -69 -55 -7 0 -35 30 -61 68
-27 37 -105 144 -174 237 -169 229 -165 222 -149 251 16 31 21 30 85 -7z
m-4116 11 c0 -5 -4 -10 -10 -10 -5 0 -10 5 -10 10 0 6 5 10 10 10 6 0 10 -4
10 -10z m3957 4 c-3 -3 -12 -4 -19 -1 -8 3 -5 6 6 6 11 1 17 -2 13 -5z m-2510
-41 c-3 -10 -5 -4 -5 12 0 17 2 24 5 18 2 -7 2 -21 0 -30z m-1421 7 c0 -22
-11 -26 -22 -9 -5 9 5 22 21 29 1 0 1 -9 1 -20z m1918 14 c16 -6 23 -44 9 -44
-17 1 -45 29 -38 39 7 13 8 13 29 5z m1978 -15 c-12 -14 -18 -15 -24 -6 -12
19 -10 22 16 23 22 2 23 1 8 -17z m-75 -11 c-3 -8 -6 -5 -6 6 -1 11 2 17 5 13
3 -3 4 -12 1 -19z m-3917 -64 c0 -60 -3 -70 -42 -127 -23 -34 -67 -93 -98
-132 -31 -38 -70 -90 -87 -115 -17 -25 -46 -63 -65 -84 l-35 -40 -34 24 c-47
32 -99 82 -99 94 0 15 443 455 452 450 5 -3 8 -34 8 -70z m60 57 c8 -15 6 -29
-7 -55 -10 -20 -21 -36 -25 -36 -5 0 -8 25 -8 55 0 42 4 55 15 55 8 0 19 -9
25 -19z m67 -3 c-3 -8 -6 -5 -6 6 -1 11 2 17 5 13 3 -3 4 -12 1 -19z m113 18
c0 -2 -9 -6 -20 -9 -11 -3 -20 -1 -20 4 0 5 9 9 20 9 11 0 20 -2 20 -4z m1405
-5 c6 -11 -35 -42 -47 -35 -4 3 -8 14 -8 25 0 14 7 19 24 19 14 0 27 -4 31 -9z
m-1234 -23 c82 -33 122 -62 175 -123 27 -31 52 -63 57 -70 4 -8 -37 7 -90 32
-72 33 -114 61 -155 101 -53 52 -71 82 -49 82 4 0 33 -10 62 -22z m764 -52
c-6 -47 -11 -56 -27 -56 -13 0 -18 5 -15 14 3 8 9 32 12 53 10 59 14 68 26 56
7 -7 8 -31 4 -67z m2880 37 c8 -54 11 -68 34 -163 l20 -85 -25 30 c-13 17 -36
53 -49 80 -14 28 -36 65 -50 84 -14 19 -25 37 -25 40 0 9 63 50 77 50 7 1 15
-16 18 -36z m-557 -80 c-51 -59 -132 -148 -179 -197 l-87 -91 -22 20 c-26 23
-80 99 -80 113 0 5 46 34 103 65 56 31 156 88 222 127 66 38 124 70 128 70 5
0 -33 -48 -85 -107z m321 -40 c1 -46 -5 -61 -57 -145 -32 -51 -89 -146 -126
-210 -38 -65 -73 -118 -78 -118 -15 0 -111 48 -137 69 l-24 18 75 94 c172 217
319 409 325 426 9 21 21 -51 22 -134z m84 125 c16 -8 16 -11 -4 -51 -12 -23
-29 -53 -38 -66 l-15 -24 -7 24 c-4 13 -7 50 -8 82 l-1 57 28 -6 c15 -4 35
-11 45 -16z m264 -103 c27 -38 104 -145 171 -237 l121 -167 -27 -19 c-15 -11
-50 -31 -79 -46 l-52 -26 -24 43 c-14 23 -43 74 -65 112 -22 39 -49 89 -61
112 -21 42 -71 267 -71 319 l0 27 18 -24 c11 -13 41 -55 69 -94z m-2615 25 c7
-19 20 -44 28 -56 22 -31 113 -84 144 -84 14 0 26 -4 26 -10 0 -5 -9 -10 -20
-10 -30 0 -90 27 -90 40 0 6 -3 9 -8 6 -4 -2 -22 8 -40 22 -31 26 -73 119 -71
159 0 13 3 10 9 -7 5 -14 15 -41 22 -60z m3176 -135 c6 -6 -61 -106 -87 -129
-17 -16 -25 -9 -148 131 -72 82 -143 159 -157 172 -14 14 -26 27 -26 31 0 5
407 -194 418 -205z m-4357 148 c30 -32 72 -83 95 -113 22 -30 67 -91 99 -135
32 -44 78 -103 102 -131 24 -28 43 -55 43 -60 0 -9 -60 -49 -117 -78 l-33 -16
-47 72 c-235 366 -233 363 -233 416 0 42 17 102 29 102 4 0 32 -26 62 -57z
m1099 48 c0 -5 3 -17 7 -27 5 -13 3 -15 -8 -10 -8 4 -4 -1 7 -11 12 -10 25
-31 29 -48 13 -56 158 -171 208 -164 38 5 107 -3 107 -11 0 -6 -19 -10 -45 -8
-25 2 -45 8 -45 13 0 6 -4 4 -8 -2 -5 -8 -18 -10 -32 -7 -14 4 -35 7 -47 8
-15 1 -23 7 -23 19 0 25 -36 21 -45 -5 -6 -18 -8 -20 -12 -7 -2 10 -19 19 -44
23 -31 5 -39 10 -35 21 7 20 1 19 -20 -2 -16 -16 -16 -16 -10 4 6 18 2 22 -24
28 -17 4 -34 13 -36 19 -3 7 4 47 16 89 11 42 20 79 20 82 0 3 9 5 20 5 11 0
20 -4 20 -9z m2477 -13 c-3 -8 -6 -5 -6 6 -1 11 2 17 5 13 3 -3 4 -12 1 -19z
m-3698 -48 c0 -29 -2 -31 -9 -15 -5 11 -9 34 -9 50 -1 23 2 26 9 15 5 -8 9
-31 9 -50z m511 35 c0 -8 -4 -15 -9 -15 -13 0 -22 16 -14 24 11 11 23 6 23 -9z
m-652 -35 c0 -22 -4 -37 -9 -34 -16 9 -10 74 7 74 2 0 2 -18 2 -40z m479 29
c15 -6 82 -26 148 -45 208 -57 275 -79 275 -87 0 -12 -49 -87 -88 -135 l-35
-43 -31 29 c-17 16 -65 54 -107 85 -42 30 -104 87 -138 127 -75 86 -76 89 -24
69z m234 1 c10 0 19 -7 19 -15 0 -12 -7 -14 -27 -9 -36 9 -43 13 -43 26 0 5 7
7 16 4 9 -3 24 -6 35 -6z m3105 -42 c-3 -24 -2 -104 3 -178 l8 -135 2 160 c1
88 6 168 9 178 6 14 14 6 42 -40 l35 -57 9 -211 c4 -115 9 -230 10 -255 l1
-45 -106 -3 c-80 -2 -108 1 -111 10 -3 7 -1 49 3 93 4 44 8 152 8 240 l1 160
43 62 c23 34 43 63 45 63 2 0 1 -19 -2 -42z m-3056 21 c0 -5 4 -8 8 -5 5 3 41
-4 82 -14 70 -18 100 -33 88 -45 -8 -9 -98 16 -98 27 0 5 -4 7 -8 4 -15 -9
-92 16 -92 30 0 8 5 14 10 14 6 0 10 -5 10 -11z m1588 -12 c3 -15 -1 -17 -25
-11 -37 9 -41 13 -23 25 21 13 44 7 48 -14z m-741 -29 c30 -29 42 -65 27 -81
-7 -7 -67 23 -104 52 -24 19 -24 20 -6 40 26 29 45 26 83 -11z m-1527 12 c0
-5 -4 -10 -9 -10 -6 0 -13 5 -16 10 -3 6 1 10 9 10 9 0 16 -4 16 -10z m-120
-19 c0 -13 -31 -43 -38 -37 -3 3 3 15 13 26 20 22 25 24 25 11z m1834 -4 c17
-13 16 -15 -16 -35 -43 -27 -83 -30 -74 -6 3 9 6 20 6 25 0 9 35 27 56 28 5 1
18 -5 28 -12z m-1669 -7 c3 -5 2 -10 -4 -10 -5 0 -13 5 -16 10 -3 6 -2 10 4
10 5 0 13 -4 16 -10z m375 -68 c78 -38 151 -83 193 -118 l69 -57 -58 -58 c-32
-33 -63 -59 -69 -59 -6 0 -25 15 -42 33 -32 34 -253 325 -253 333 0 3 8 1 18
-4 9 -5 73 -37 142 -70z m590 38 c58 -17 135 -38 173 -47 43 -11 67 -22 67
-31 0 -9 -6 -12 -17 -7 -29 11 -106 34 -134 39 -14 2 -59 13 -100 24 -41 11
-86 23 -101 26 -31 7 -38 26 -10 26 9 -1 64 -14 122 -30z m1254 4 c11 -28 6
-65 -9 -70 -25 -10 -44 3 -38 26 3 12 9 17 12 11 4 -6 12 -2 19 9 11 18 9 20
-14 20 -14 0 -23 4 -19 10 10 16 42 12 49 -6z m-494 2 c0 -11 -77 -76 -90 -76
-12 0 -12 2 0 14 13 13 80 63 88 65 1 1 2 -1 2 -3z m60 -19 c0 -7 -9 -18 -20
-25 -23 -14 -27 0 -7 23 15 18 27 19 27 2z m-1831 -11 c9 -11 5 -15 -20 -20
-50 -10 -79 -7 -79 7 0 8 3 17 7 20 12 12 80 7 92 -7z m-214 -103 c3 -18 13
-40 22 -48 14 -15 11 -27 -42 -141 -78 -166 -70 -158 -125 -136 -82 32 -131
62 -124 75 4 7 64 88 133 180 120 160 126 167 129 135 1 -18 5 -47 7 -65z
m1865 66 c0 -5 -9 -9 -20 -9 -19 0 -27 20 -13 33 7 8 33 -11 33 -24z m-1813
-31 c-2 -13 -4 -5 -4 17 -1 22 1 32 4 23 2 -10 2 -28 0 -40z m210 -10 c-2 -13
-4 -3 -4 22 0 25 2 35 4 23 2 -13 2 -33 0 -45z m1730 43 c1 -11 -9 -24 -25
-32 -15 -8 -30 -18 -34 -24 -4 -5 -10 -6 -15 -2 -4 5 10 24 32 42 22 19 40 34
40 35 1 0 1 -8 2 -19z m-182 -11 c3 -5 1 -10 -4 -10 -6 0 -11 5 -11 10 0 6 2
10 4 10 3 0 8 -4 11 -10z m2031 -182 c-3 -106 -9 -208 -12 -226 -6 -32 -8 -34
-43 -28 -55 10 -171 48 -171 56 0 4 41 76 91 160 49 84 99 170 110 191 11 22
22 39 26 39 3 0 3 -87 -1 -192z m-3485 140 c14 -24 65 -107 114 -186 48 -80
84 -147 79 -152 -13 -12 -145 -51 -154 -45 -5 3 -31 74 -59 158 -49 146 -51
155 -36 183 8 16 15 41 15 57 0 38 11 34 41 -15z m839 13 c-31 -110 -173 -291
-311 -397 -186 -143 -430 -223 -679 -224 -241 0 -438 56 -617 177 -160 107
-271 229 -347 382 -37 72 -19 57 51 -42 113 -161 292 -313 451 -384 288 -128
642 -124 928 11 117 56 198 111 291 199 83 79 188 212 212 269 19 45 33 50 21
9z m2913 -3 c14 -18 57 -94 97 -168 40 -74 77 -141 82 -147 6 -7 8 -19 5 -27
-6 -15 -112 -53 -162 -58 l-29 -3 -12 105 c-20 180 -27 330 -15 330 5 0 21
-15 34 -32z m-2211 -30 c-9 -9 -15 -9 -24 0 -10 10 -10 15 2 22 20 12 38 -6
22 -22z m1296 -249 c137 -131 254 -197 445 -255 179 -54 411 -57 587 -9 114
31 278 108 366 170 85 61 222 201 281 286 25 38 48 67 51 65 2 -3 -13 -36 -33
-74 -129 -246 -422 -447 -738 -507 -100 -19 -287 -19 -392 -1 -335 60 -620
252 -768 517 -57 103 -44 100 36 -8 41 -54 115 -137 165 -184z m-3048 184 c7
-6 0 -305 -7 -317 -10 -15 -173 14 -197 35 -6 5 -5 17 2 31 14 29 89 192 108
236 14 31 17 32 52 26 20 -4 39 -9 42 -11z m169 -142 c22 -69 41 -135 43 -145
4 -25 -25 -34 -119 -35 l-73 -1 0 164 0 165 43 3 c27 2 46 -2 54 -11 7 -8 30
-71 52 -140z m-1277 -631 c37 -63 89 -151 115 -195 94 -161 105 -186 89 -209
-7 -12 -26 -22 -41 -24 -49 -6 -67 19 -241 331 -46 83 -84 161 -84 174 0 27
26 44 65 40 27 -2 37 -14 97 -117z m6247 105 c13 -14 -77 -191 -217 -429 -48
-81 -87 -112 -123 -101 -24 8 -41 38 -33 62 4 10 44 81 89 158 45 77 107 182
136 233 l54 94 44 -6 c25 -3 47 -8 50 -11z m-4991 -162 c188 -172 277 -243
427 -339 324 -208 701 -341 1087 -383 122 -14 434 -14 553 -1 561 63 1062 304
1503 723 l92 88 58 -7 c31 -3 58 -8 60 -9 6 -6 -117 -142 -204 -225 -270 -259
-598 -456 -959 -576 -260 -86 -509 -124 -815 -124 -567 0 -1031 138 -1485 442
-187 126 -358 273 -478 412 -66 77 -65 80 20 85 43 2 48 -1 141 -86z m-637
-21 c48 -40 17 -122 -47 -122 -35 0 -74 37 -74 70 0 10 9 29 21 44 25 31 66
35 100 8z m4928 -8 c27 -34 27 -62 -1 -91 -44 -47 -118 -19 -118 44 0 47 24
73 66 73 23 0 38 -7 53 -26z m-4548 -131 c47 -43 69 -81 69 -121 0 -42 -35
-82 -71 -82 -25 0 -29 -4 -29 -28 0 -33 -32 -67 -72 -77 -36 -9 -84 21 -140
87 l-42 51 107 103 c60 57 115 104 123 104 8 0 32 -17 55 -37z m4138 -27 l22
-23 -45 -54 c-24 -29 -42 -57 -40 -61 11 -18 44 -6 73 27 36 42 45 43 67 9 17
-25 16 -26 -22 -65 -36 -37 -37 -40 -21 -56 16 -16 20 -14 67 32 l50 49 27
-26 26 -27 -41 -48 c-22 -26 -56 -63 -75 -82 l-36 -34 -26 21 c-15 12 -69 61
-120 111 l-94 89 72 81 c39 45 77 81 83 81 6 0 20 -11 33 -24z m-3866 -250
c18 -7 45 -28 60 -45 56 -67 22 -183 -71 -242 -69 -44 -124 -36 -182 26 -21
23 -25 36 -25 90 0 55 4 68 31 102 31 39 103 83 136 83 10 0 33 -6 51 -14z
m3627 -141 c55 -66 100 -123 100 -127 0 -4 -11 -15 -25 -24 -22 -15 -28 -14
-77 4 -29 11 -73 23 -97 27 l-45 7 19 -28 c10 -16 31 -45 46 -65 l29 -37 -25
-16 c-13 -9 -28 -16 -33 -16 -14 0 -202 235 -202 252 0 19 42 29 77 17 52 -17
153 -37 153 -30 0 4 -21 30 -46 59 l-46 53 23 25 c13 14 29 23 36 22 7 -2 57
-57 113 -123z m-3250 -116 c44 -28 80 -56 80 -63 0 -6 -8 -21 -18 -34 l-18
-24 -53 33 c-43 27 -54 30 -62 18 -15 -24 -10 -38 16 -45 38 -9 45 -25 30 -61
-16 -38 -27 -40 -62 -13 -31 24 -49 25 -57 4 -10 -26 -8 -29 44 -55 53 -26 62
-47 36 -82 -14 -18 -16 -18 -48 -1 -74 38 -149 96 -146 112 4 21 160 261 170
262 4 0 43 -23 88 -51z m2818 -9 c12 -16 22 -31 22 -34 0 -3 -22 -17 -50 -33
-50 -28 -62 -51 -37 -72 11 -8 19 -5 37 14 30 32 54 32 68 0 18 -38 16 -42
-29 -71 -39 -24 -40 -26 -24 -44 17 -19 19 -18 70 15 l53 33 26 -27 c25 -26
26 -28 9 -43 -10 -9 -55 -36 -100 -61 l-82 -45 -42 71 c-59 98 -119 208 -119
217 0 4 21 19 48 33 26 14 63 37 82 51 19 14 38 25 41 26 3 0 15 -13 27 -30z
m-2440 -174 c72 -36 78 -48 46 -85 l-26 -31 -34 30 c-34 29 -67 39 -78 22 -3
-5 19 -30 49 -56 60 -51 65 -66 35 -96 -10 -10 -15 -22 -10 -25 19 -12 -29
-85 -55 -85 -22 0 -131 60 -155 85 l-23 25 23 25 c13 14 28 25 33 25 5 0 27
-16 48 -35 26 -24 49 -35 69 -35 17 0 30 4 30 8 0 4 -27 27 -59 50 -33 23 -63
51 -66 63 -19 60 35 139 96 139 16 0 51 -11 77 -24z m2017 -141 c30 -63 57
-115 60 -115 3 0 28 11 55 25 27 14 52 25 54 25 10 0 37 -60 31 -69 -5 -9
-178 -81 -194 -81 -13 0 -134 289 -127 305 4 12 16 16 59 24 5 0 32 -51 62
-114z m-1640 28 c61 -15 112 -29 114 -30 2 -1 0 -18 -3 -38 l-7 -37 -49 7 -48
7 -21 -94 c-12 -51 -24 -104 -27 -117 -4 -21 -9 -23 -41 -18 -19 4 -38 9 -41
12 -3 2 6 59 20 125 l26 120 -44 11 c-48 12 -47 11 -38 59 6 26 10 31 28 26
12 -3 71 -18 131 -33z m1344 -20 c6 -20 9 -37 8 -38 -1 -1 -27 -10 -57 -21
-44 -16 -54 -24 -52 -39 5 -29 7 -29 52 -11 45 18 49 15 53 -39 2 -26 -2 -30
-38 -41 -31 -9 -39 -16 -37 -30 2 -10 6 -21 8 -23 4 -5 71 11 104 24 11 4 19
-4 28 -27 6 -18 8 -35 4 -39 -8 -9 -193 -61 -198 -57 -5 5 -72 250 -79 288
l-6 36 88 26 c48 14 93 26 100 27 7 0 17 -16 22 -36z m-992 -43 c17 0 27 -12
44 -50 12 -27 24 -50 28 -50 3 0 20 22 37 48 30 46 33 48 73 44 50 -5 51 -2
-23 -115 -31 -46 -56 -95 -56 -108 0 -13 -3 -41 -6 -61 -6 -36 -8 -38 -45 -38
l-39 0 0 76 c0 68 -4 85 -40 161 -22 47 -40 90 -40 96 0 5 10 7 23 3 12 -3 32
-6 44 -6z m593 -18 c14 -11 26 -28 28 -38 3 -24 -35 -51 -51 -35 -19 19 -79
13 -104 -11 -17 -16 -23 -32 -23 -64 0 -82 71 -125 125 -74 24 23 44 22 79 -5
19 -15 19 -16 -14 -50 -59 -61 -148 -66 -221 -14 -55 39 -75 148 -40 224 21
47 38 62 88 81 46 17 99 11 133 -14z"/>
<path d="M5170 3673 c-58 -7 -76 -35 -44 -67 18 -19 94 -22 112 -4 18 18 14
56 -7 68 -11 5 -21 9 -23 8 -2 0 -19 -3 -38 -5z"/>
<path d="M4956 3657 c-28 -21 -17 -51 21 -55 25 -3 33 1 38 19 5 16 2 26 -11
36 -22 16 -26 16 -48 0z"/>
<path d="M5352 3653 c-15 -27 4 -53 36 -53 38 0 54 13 50 41 -2 20 -10 25 -40
27 -27 2 -39 -1 -46 -15z"/>
<path d="M5117 3352 c-20 -43 -39 -90 -42 -105 -7 -25 -11 -27 -65 -27 -78 0
-150 -11 -150 -22 0 -10 24 -35 104 -107 l49 -44 -26 -111 c-14 -61 -24 -112
-22 -114 2 -2 16 5 32 15 15 11 56 38 91 61 l63 41 91 -59 c50 -33 95 -60 100
-60 9 0 8 4 -27 140 l-21 85 85 81 86 82 -75 6 c-41 3 -90 7 -108 9 -32 2 -35
6 -76 99 -23 54 -44 100 -47 103 -4 3 -22 -30 -42 -73z"/>
<path d="M4455 3317 c-54 -26 -100 -72 -122 -124 -19 -47 -16 -160 6 -209 24
-52 90 -108 147 -124 61 -17 154 -8 200 20 113 70 146 245 69 361 -58 89 -199
124 -300 76z m177 -127 c29 -29 30 -34 26 -100 -4 -79 -28 -115 -83 -126 -77
-14 -130 50 -123 149 6 77 35 107 104 107 37 0 51 -6 76 -30z"/>
<path d="M5645 3317 c-93 -45 -138 -117 -138 -223 -1 -104 42 -177 129 -220
48 -23 63 -26 124 -22 73 6 133 33 178 81 l23 24 -53 36 -53 35 -25 -23 c-14
-13 -38 -29 -54 -35 -88 -33 -168 67 -137 170 24 82 110 106 174 50 19 -16 38
-30 41 -30 4 0 29 15 56 33 l49 33 -22 26 c-70 83 -197 111 -292 65z"/>
<path d="M4037 3112 c-38 -42 -8 -102 51 -102 33 0 62 29 62 62 0 49 -80 77
-113 40z"/>
<path d="M6150 3110 c-50 -50 6 -120 75 -94 37 15 38 82 1 106 -20 14 -56 8
-76 -12z"/>
<path d="M4857 4609 c-41 -24 -39 -106 3 -129 28 -15 73 -12 98 6 20 14 23 22
17 58 -4 22 -14 49 -23 59 -17 19 -67 22 -95 6z"/>
<path d="M4600 4290 c0 -5 6 -10 13 -10 6 0 23 -3 37 -6 17 -5 22 -3 15 3 -15
15 -65 25 -65 13z"/>
<path d="M3040 3095 c-10 -13 -10 -19 5 -35 10 -11 24 -20 32 -20 22 0 27 29
8 50 -22 24 -29 25 -45 5z"/>
<path d="M2950 3004 c-12 -21 -11 -26 6 -39 10 -8 24 -15 31 -15 30 0 26 52
-6 70 -14 7 -21 4 -31 -16z"/>
<path d="M3274 2784 c-76 -80 -13 -156 70 -84 59 53 56 120 -6 120 -22 0 -40
-10 -64 -36z"/>
<path d="M4806 7404 c-12 -11 -16 -36 -16 -90 0 -105 10 -114 134 -114 52 0
106 4 120 10 25 9 26 13 26 93 0 114 -4 117 -143 117 -83 0 -109 -3 -121 -16z
m178 -30 c12 -5 16 -21 16 -65 0 -67 -8 -73 -91 -67 l-44 3 -3 54 c-2 29 -1
60 2 67 6 15 89 20 120 8z"/>
<path d="M4910 7310 c0 -25 4 -30 25 -30 14 0 25 5 25 10 0 6 -7 10 -15 10 -8
0 -15 5 -15 10 0 6 7 10 15 10 8 0 15 5 15 10 0 6 -11 10 -25 10 -21 0 -25 -5
-25 -30z"/>
<path d="M5256 7398 c-11 -15 -16 -45 -16 -90 0 -99 11 -108 141 -108 137 0
139 1 139 104 0 113 -4 116 -143 116 -98 0 -107 -2 -121 -22z m192 -27 c9 -5
12 -26 10 -67 l-3 -59 -70 0 -70 0 -3 59 c-4 70 2 76 73 76 28 0 56 -4 63 -9z"/>
<path d="M5355 7339 c-11 -16 -1 -20 33 -13 18 4 29 10 26 15 -7 13 -51 11
-59 -2z"/>
<path d="M5360 7290 c-11 -7 -5 -10 23 -10 20 0 37 5 37 10 0 13 -40 13 -60 0z"/>
<path d="M4163 7113 c-8 -19 34 -102 59 -117 31 -19 32 3 3 64 -30 62 -51 81
-62 53z"/>
<path d="M5140 6951 c0 -163 1 -171 19 -171 26 0 33 49 29 210 -3 121 -4 125
-25 128 l-23 3 0 -170z"/>
<path d="M6111 7106 c-7 -8 -15 -30 -18 -50 -4 -29 -2 -36 10 -36 19 0 47 49
47 80 0 23 -22 27 -39 6z"/>
<path d="M4876 7101 c-5 -8 3 -85 46 -411 10 -72 17 -95 28 -95 24 0 23 52 -8
290 -23 182 -30 220 -44 223 -9 2 -19 -1 -22 -7z"/>
<path d="M5411 7088 c-5 -13 -19 -108 -31 -213 -12 -104 -24 -209 -27 -232 -5
-39 -4 -43 15 -43 14 0 23 8 27 23 13 61 57 458 52 472 -9 22 -26 18 -36 -7z"/>
<path d="M2835 6574 c-38 -53 -45 -68 -34 -75 10 -7 24 2 50 32 l37 42 58 -33
c33 -18 118 -69 189 -113 143 -89 289 -173 349 -201 29 -14 41 -15 50 -6 14
14 6 21 -139 107 -233 140 -464 284 -475 298 -21 25 -35 17 -85 -51z"/>
<path d="M7320 6591 c-127 -82 -289 -184 -428 -270 -123 -76 -156 -109 -104
-104 25 3 84 37 381 221 l235 145 36 -43 c26 -30 42 -41 53 -37 10 4 17 10 17
14 0 15 -91 123 -103 123 -7 0 -46 -22 -87 -49z"/>
<path d="M5143 6615 c-9 -26 10 -90 27 -90 24 0 21 99 -3 103 -9 2 -20 -4 -24
-13z"/>
<path d="M5575 6610 c3 -5 8 -10 11 -10 2 0 4 5 4 10 0 6 -5 10 -11 10 -5 0
-7 -4 -4 -10z"/>
<path d="M4730 6600 c0 -5 5 -10 10 -10 6 0 10 5 10 10 0 6 -4 10 -10 10 -5 0
-10 -4 -10 -10z"/>
<path d="M3680 6589 c0 -16 142 -170 154 -166 25 8 13 31 -55 101 -66 70 -99
92 -99 65z"/>
<path d="M7433 6353 c-68 -37 -123 -73 -123 -81 0 -30 36 -20 150 40 96 50
120 67 118 82 -2 11 -7 21 -13 22 -5 2 -65 -27 -132 -63z"/>
<path d="M2743 6394 c-8 -21 -4 -24 125 -90 93 -47 115 -55 123 -43 5 8 9 17
9 21 0 7 -227 128 -241 128 -5 0 -12 -7 -16 -16z"/>
<path d="M7615 6159 c-156 -62 -175 -71 -175 -86 0 -21 27 -16 167 31 84 28
135 41 144 35 20 -12 29 -11 29 4 -1 18 -36 57 -52 56 -7 0 -58 -18 -113 -40z"/>
<path d="M2537 6166 c-22 -33 -22 -32 16 -33 17 0 91 -18 162 -40 72 -22 136
-38 143 -36 33 13 1 34 -120 78 -174 62 -180 63 -201 31z"/>
<path d="M7781 5964 c-91 -25 -115 -39 -87 -50 16 -6 34 -4 151 12 l40 6 58
-86 c54 -78 87 -107 87 -73 0 25 -132 217 -149 216 -9 0 -54 -11 -100 -25z"/>
<path d="M2377 5948 c-59 -79 -109 -169 -103 -185 6 -15 9 -15 26 3 11 11 42
51 68 89 53 77 43 73 166 60 63 -8 68 -7 65 10 -3 14 -23 23 -74 37 -101 26
-120 24 -148 -14z"/>
<path d="M7786 2869 c-25 -28 -46 -55 -46 -59 0 -4 24 -27 53 -51 92 -77 85
-74 99 -44 11 24 10 29 -12 45 l-23 18 26 26 c31 31 33 41 11 50 -15 6 -25 -2
-55 -47 -8 -11 -29 0 -29 14 0 6 12 21 26 34 21 20 24 27 14 44 -6 12 -12 21
-14 21 -2 0 -25 -23 -50 -51z"/>
<path d="M2440 2862 c-32 -16 -35 -21 -38 -68 -3 -47 0 -54 28 -78 39 -33 65
-33 113 -1 32 22 37 31 37 63 0 39 -21 73 -57 91 -29 15 -42 14 -83 -7z m91
-53 c9 -17 7 -25 -12 -45 -35 -38 -79 -28 -79 17 0 16 40 49 60 49 10 0 24 -9
31 -21z"/>
<path d="M7601 2669 c-50 -56 -52 -51 39 -136 l45 -42 28 27 c37 35 51 62 40
73 -6 6 -17 1 -28 -11 -21 -23 -45 -26 -45 -7 0 28 38 50 74 44 22 -4 39 -1
46 7 8 11 1 16 -33 24 -24 7 -55 24 -72 42 -16 16 -34 30 -39 29 -6 -1 -31
-23 -55 -50z m79 -17 c0 -21 -18 -42 -37 -42 -16 0 -17 32 -1 48 18 18 38 15
38 -6z"/>
<path d="M2646 2682 c-8 -16 -34 -46 -57 -66 -41 -38 -41 -38 -22 -58 19 -19
20 -19 72 28 49 44 52 46 71 29 19 -17 40 -13 40 9 0 12 -70 86 -83 86 -3 0
-13 -13 -21 -28z"/>
<path d="M7429 2514 c-11 -13 -8 -19 17 -39 l29 -23 -25 -21 c-32 -26 -37 -26
-45 0 -5 14 -14 19 -28 17 -35 -5 -26 -33 32 -99 48 -55 55 -59 69 -45 14 14
14 17 -1 34 -20 22 -22 43 -5 60 18 18 43 15 63 -8 14 -15 21 -17 32 -9 20 17
17 23 -43 88 -59 64 -73 71 -95 45z"/>
<path d="M2817 2457 c-42 -48 -53 -67 -45 -75 17 -17 29 -15 53 8 l22 20 18
-20 c10 -11 25 -20 34 -20 16 0 71 48 71 62 0 14 -72 88 -85 88 -7 0 -38 -29
-68 -63z m93 -16 c5 -11 6 -22 2 -25 -14 -8 -46 20 -38 32 11 17 24 15 36 -7z"/>
<path d="M3001 2293 l-51 -57 20 -20 20 -20 17 24 c10 13 29 38 44 54 26 29
27 30 53 13 14 -10 26 -25 26 -33 0 -25 -31 -71 -57 -85 -23 -12 -23 -14 -7
-26 25 -18 29 -17 68 17 36 32 52 75 41 110 -8 25 -81 80 -106 80 -9 0 -40
-26 -68 -57z"/>
<path d="M7210 2325 c-46 -49 -22 -133 45 -155 42 -14 89 0 106 32 14 26 3 35
-21 20 -29 -18 -57 -15 -80 10 -27 30 -26 64 5 84 14 9 22 20 19 25 -10 17
-51 9 -74 -16z"/>
<path d="M3267 2132 c-39 -40 -37 -92 4 -126 59 -50 90 -42 141 33 25 37 22
58 -11 92 -41 40 -96 41 -134 1z m98 -28 c14 -15 14 -19 -3 -48 -24 -41 -66
-44 -70 -4 -2 17 4 34 17 47 25 25 35 26 56 5z"/>
<path d="M6927 2136 c-17 -13 -15 -18 29 -88 25 -40 48 -75 49 -76 7 -8 95 51
95 63 0 21 -17 27 -42 14 -23 -12 -36 -2 -93 74 -18 24 -22 25 -38 13z"/>
<path d="M6804 2056 c-6 -15 63 -156 76 -156 16 0 32 31 26 52 -3 13 -19 44
-36 71 -30 47 -56 60 -66 33z"/>
<path d="M3527 2039 c-3 -12 -1 -29 5 -39 9 -13 5 -25 -16 -56 -31 -46 -32
-60 -7 -74 17 -9 23 -4 48 42 26 49 31 53 61 50 49 -3 41 22 -20 63 -29 19
-56 35 -59 35 -4 0 -9 -10 -12 -21z"/>
<path d="M6660 1993 c-14 -9 -27 -18 -29 -19 -2 -2 10 -19 27 -39 18 -19 39
-50 48 -68 9 -17 18 -33 19 -35 5 -6 35 11 35 21 0 9 -70 157 -74 157 -1 0
-13 -8 -26 -17z"/>
<path d="M3736 1864 c-8 -22 11 -54 33 -54 29 0 45 25 31 49 -13 25 -55 28
-64 5z"/>
<path d="M6308 1850 c-26 -9 -51 -19 -54 -23 -6 -6 16 -81 42 -144 11 -25 18
-30 35 -26 20 6 21 14 5 53 -4 10 4 21 24 32 39 22 57 60 42 92 -14 32 -38 36
-94 16z m42 -49 c0 -19 -23 -35 -34 -24 -14 15 -5 43 14 43 13 0 20 -7 20 -19z"/>
<path d="M3989 1813 c-51 -130 -51 -135 9 -156 60 -22 72 -21 72 2 0 12 -9 21
-26 25 -25 7 -26 9 -20 54 13 85 12 96 -6 100 -12 2 -22 -6 -29 -25z"/>
<path d="M4226 1761 c-11 -18 -45 -155 -40 -162 3 -5 13 -9 23 -9 14 0 22 15
35 63 9 34 18 72 22 83 4 16 0 23 -15 27 -12 3 -23 2 -25 -2z"/>
<path d="M6030 1746 c0 -25 48 -161 57 -161 4 1 30 5 56 9 41 7 48 11 45 30
-3 20 -9 22 -62 13 -5 -1 -18 26 -29 61 -18 52 -24 62 -44 62 -13 0 -23 -6
-23 -14z"/>
<path d="M5825 1706 c-22 -6 -39 -16 -39 -21 1 -6 10 -45 20 -88 16 -71 20
-78 38 -73 12 4 40 9 64 12 33 5 42 11 42 26 0 18 -5 20 -45 14 -41 -7 -45 -5
-45 13 0 15 8 20 33 23 20 2 32 8 32 18 0 12 -10 14 -44 12 -33 -3 -42 -1 -39
10 3 7 15 15 29 16 29 5 49 20 49 38 0 17 -39 17 -95 0z"/>
<path d="M4389 1681 c-47 -48 -38 -116 21 -146 68 -35 128 -1 137 77 5 42 2
50 -22 72 -40 37 -97 36 -136 -3z m99 -23 c17 -17 15 -49 -4 -76 -19 -27 -28
-28 -55 -1 -15 15 -19 28 -14 47 10 41 47 56 73 30z"/>
<path d="M4666 1618 c-3 -29 -6 -70 -6 -91 0 -34 3 -38 23 -35 14 2 23 11 25
26 5 31 20 28 40 -8 28 -50 76 -54 54 -4 -10 20 -9 30 3 47 8 12 15 36 15 55
0 28 -5 35 -35 48 -19 7 -52 14 -73 14 l-39 0 -7 -52z m102 -11 c4 -20 -25
-34 -40 -19 -15 15 -1 44 19 40 10 -2 19 -11 21 -21z"/>
<path d="M5543 1663 c-26 -5 -27 -7 -12 -108 11 -69 13 -75 35 -75 20 0 24 5
24 30 0 37 9 38 40 5 13 -14 29 -25 36 -25 22 0 27 20 9 40 -13 14 -14 23 -6
39 16 30 13 66 -7 84 -18 16 -66 20 -119 10z m82 -58 c0 -13 -8 -21 -22 -23
-19 -3 -23 1 -23 23 0 22 4 26 23 23 14 -2 22 -10 22 -23z"/>
<path d="M5253 1614 c-22 -22 -25 -32 -20 -72 6 -57 33 -82 88 -82 49 0 88 33
95 81 5 28 1 41 -21 67 -23 27 -33 32 -71 32 -35 0 -51 -6 -71 -26z m102 -38
c20 -30 5 -76 -25 -76 -30 0 -56 45 -42 75 15 32 47 32 67 1z"/>
<path d="M5000 1579 c-9 -15 -8 -24 1 -35 18 -21 57 -18 64 6 14 44 -44 69
-65 29z"/>
</g>
</svg>
